<?xml version="1.0" standalone="no"?>
<!DOCTYPE svg PUBLIC "-//W3C//DTD SVG 20010904//EN"
 "http://www.w3.org/TR/2001/REC-SVG-20010904/DTD/svg10.dtd">
<svg version="1.0" xmlns="http://www.w3.org/2000/svg"
 width="380.000000pt" height="380.000000pt" viewBox="0 0 380.000000 380.000000"
 preserveAspectRatio="xMidYMid meet">

<g transform="translate(0.000000,380.000000) scale(0.100000,-0.100000)"
fill="#000000" stroke="none">
<path d="M296 3435 c-54 -19 -106 -64 -133 -115 -18 -33 -23 -59 -23 -113 0
-85 25 -145 78 -185 123 -94 133 -116 113 -241 -60 -379 -80 -715 -62 -1044 6
-128 16 -266 22 -307 16 -124 17 -131 35 -247 9 -61 14 -126 10 -145 -7 -38
-38 -75 -90 -108 -20 -12 -51 -43 -69 -68 -28 -41 -32 -57 -35 -123 -5 -96 17
-150 79 -201 53 -42 96 -58 159 -58 86 0 168 52 226 142 33 51 68 72 127 74
57 3 80 20 79 60 0 42 -27 57 -95 51 -87 -8 -144 -41 -196 -116 -68 -97 -128
-122 -206 -85 -41 19 -63 50 -70 101 -8 53 18 97 90 153 110 85 132 159 100
340 -25 142 -44 325 -57 548 -16 291 4 664 52 947 5 33 13 94 16 135 6 69 4
81 -21 133 -19 42 -41 68 -78 96 -88 66 -101 84 -101 147 0 49 3 58 36 91 29
29 45 37 85 40 63 5 99 -17 152 -95 44 -66 83 -95 152 -113 39 -10 79 -9 250
10 326 35 418 41 709 50 441 13 810 -2 1265 -50 224 -24 251 -21 323 31 23 16
57 53 76 81 45 67 79 89 138 89 87 0 151 -86 128 -172 -10 -35 -32 -58 -113
-120 -47 -36 -87 -119 -87 -180 0 -58 29 -246 42 -270 13 -26 70 -24 86 2 10
17 10 38 -3 115 -29 182 -21 213 74 281 76 55 111 121 111 208 -1 78 -24 130
-83 182 -121 107 -279 79 -378 -68 -64 -94 -84 -99 -292 -73 -258 31 -516 46
-867 52 -400 6 -670 -4 -1020 -40 -118 -12 -248 -22 -289 -22 l-74 0 -36 44
c-74 92 -136 146 -177 159 -53 16 -109 15 -158 -3z"/>
<path d="M586 2991 c-20 -22 -21 -19 18 -163 l26 -96 -35 -74 c-45 -96 -89
-233 -117 -361 -19 -87 -22 -133 -23 -312 0 -183 3 -224 23 -315 28 -130 63
-239 113 -351 l38 -87 -20 -78 c-11 -44 -24 -94 -30 -113 -20 -60 28 -108 77
-76 35 23 102 289 141 565 26 182 26 723 0 900 -34 230 -89 483 -120 550 -16
33 -66 39 -91 11z m109 -647 c14 -129 16 -212 12 -439 -5 -243 -23 -454 -40
-471 -13 -14 -80 226 -98 354 -7 53 -9 145 -6 250 6 176 22 273 74 427 32 98
35 92 58 -121z"/>
<path d="M3450 2467 c-24 -12 -25 -16 -24 -102 10 -667 7 -756 -41 -1092 -14
-94 -25 -191 -25 -215 0 -59 39 -139 85 -174 84 -65 105 -87 115 -123 14 -52
-3 -103 -46 -140 -28 -25 -44 -31 -80 -31 -56 0 -75 10 -140 70 -121 114 -253
146 -484 120 -398 -45 -1057 -57 -1475 -26 -438 33 -390 32 -410 2 -16 -24
-16 -28 -1 -51 10 -14 29 -26 48 -29 64 -10 124 -16 198 -21 41 -3 134 -10
205 -16 167 -14 893 -14 1050 0 66 6 161 13 210 16 50 3 118 10 153 14 34 5
110 9 170 8 93 -2 114 -6 165 -29 31 -15 81 -49 110 -77 66 -62 126 -90 193
-91 96 0 178 51 220 136 23 46 26 64 22 123 -4 84 -33 132 -117 196 -29 22
-59 52 -67 65 -16 30 -18 105 -4 181 48 267 63 504 57 871 -3 178 -10 340 -14
362 -10 50 -38 70 -73 53z"/>
</g>
</svg>
