<?xml version="1.0" encoding="UTF-8"?>
<svg version="1.1" xmlns="http://www.w3.org/2000/svg" width="380" height="380">
<path d="M0 0 C0.7310495 -0.00350464 1.462099 -0.00700928 2.21530151 -0.01062012 C4.61108134 -0.01936051 7.00656137 -0.01361573 9.40234375 -0.00683594 C11.07950903 -0.0081848 12.75667394 -0.01012718 14.43383789 -0.01263428 C17.9406305 -0.01557512 21.44732088 -0.01132144 24.95410156 -0.00195312 C29.43618406 0.00944079 33.91802698 0.00287574 38.40010071 -0.00909805 C41.86089871 -0.01634478 45.32164044 -0.01401583 48.78244019 -0.00884247 C50.43456043 -0.00751375 52.08668588 -0.00912628 53.73880005 -0.01380157 C56.05256574 -0.01891324 58.36595002 -0.01109202 60.6796875 0 C62.64989868 0.00238678 62.64989868 0.00238678 64.65991211 0.00482178 C69.18110752 0.31684815 73.27161476 1.22467457 77.33984375 3.25878906 C77.33984375 3.91878906 77.33984375 4.57878906 77.33984375 5.25878906 C78.32984375 5.58878906 79.31984375 5.91878906 80.33984375 6.25878906 C85.64664943 21.88438356 83.38370444 40.31284039 81.77734375 56.44628906 C81.26690943 61.78621734 81.30654508 67.08805759 81.33984375 72.44628906 C81.38317549 79.47841131 81.24087208 86.42427355 80.76782227 93.44189453 C80.32219629 100.14742979 80.03917882 106.85624115 79.77734375 113.57128906 C79.73359619 114.64467529 79.68984863 115.71806152 79.64477539 116.82397461 C79.45525803 121.7800251 79.32619368 126.71714829 79.375 131.67675781 C79.40080619 138.1588515 79.07807445 144.61293235 78.76576233 151.08547974 C78.40172175 158.69501305 78.10548824 166.30536568 77.83984375 173.91894531 C77.79867432 175.09387543 77.75750488 176.26880554 77.71508789 177.4793396 C77.54690876 182.30526918 77.38075499 187.13126738 77.21484375 191.95727539 C77.09095962 195.54870541 76.96588109 199.14009023 76.83984375 202.73144531 C76.79931885 203.88705963 76.75879395 205.04267395 76.71704102 206.23330688 C76.42726215 214.30027701 76.07603901 222.36267716 75.64453125 230.4233551 C75.40735163 235.01628938 75.30252947 239.58498922 75.34277344 244.18421936 C75.3322667 251.62424783 74.49742591 259.49810254 69.33984375 265.25878906 C62.17986698 268.89173588 54.58411677 268.70015701 46.7421875 268.69116211 C45.38314438 268.70018892 44.02410932 268.71050723 42.66508484 268.72200298 C38.97569926 268.74951 35.28646724 268.75880888 31.59699249 268.76483679 C27.66860502 268.77444082 23.74032918 268.80106298 19.81201172 268.82559204 C12.25705016 268.87004279 4.70211202 268.89885913 -2.85294342 268.92148137 C-8.91712548 268.93986005 -14.98126363 268.96360693 -21.04541016 268.99130249 C-22.33124953 268.99716827 -22.33124953 268.99716827 -23.64306545 269.00315255 C-25.37409599 269.01107791 -27.10512646 269.01901984 -28.83615685 269.02697837 C-42.4766906 269.08925014 -56.11723033 269.14060586 -69.7578373 269.18363106 C-84.88724789 269.23150802 -100.01584064 269.31477646 -115.14489746 269.43202019 C-120.80557348 269.47347451 -126.46631367 269.5033421 -132.1270752 269.53039646 C-136.26096544 269.55052399 -140.39458953 269.57650203 -144.52832031 269.61849976 C-148.27277891 269.65613883 -152.0168326 269.67472668 -155.76147461 269.67792892 C-157.66334197 269.68417054 -159.56511547 269.71013952 -161.46679688 269.73745728 C-172.73129953 269.70906891 -185.08939027 267.97047563 -193.85546875 260.32910156 C-199.96047232 253.32552604 -201.81069692 245.39925598 -202.21484375 236.36425781 C-202.25688934 235.44484909 -202.29893494 234.52544037 -202.34225464 233.57817078 C-202.81226646 222.15900646 -202.81002614 210.73734882 -202.79052734 199.31030273 C-202.78514848 195.56587709 -202.79051816 191.82157056 -202.796875 188.07714844 C-202.80079175 177.65514807 -202.7854126 167.23669643 -202.2734375 156.82519531 C-202.24255035 156.120345 -202.21166321 155.41549469 -202.17984009 154.68928528 C-201.85045959 149.11981168 -200.88093628 144.14684994 -196.66015625 140.25878906 C-194.09119214 139.15607334 -191.50297297 138.33091485 -188.83984375 137.48535156 C-186.45640164 136.42848455 -186.45640164 136.42848455 -185.60546875 133.90722656 C-185.12595641 131.34736837 -184.86369676 128.85284792 -184.66015625 126.25878906 C-184.16515625 124.77378906 -184.16515625 124.77378906 -183.66015625 123.25878906 C-183.00015625 123.25878906 -182.34015625 123.25878906 -181.66015625 123.25878906 C-181.66015625 122.59878906 -181.66015625 121.93878906 -181.66015625 121.25878906 C-181.00015625 121.25878906 -180.34015625 121.25878906 -179.66015625 121.25878906 C-179.66015625 120.59878906 -179.66015625 119.93878906 -179.66015625 119.25878906 C-173.91015625 116.25878906 -173.91015625 116.25878906 -171.66015625 116.25878906 C-171.69496094 115.1128125 -171.72976562 113.96683594 -171.765625 112.78613281 C-171.79378328 111.25619967 -171.82108124 109.72625053 -171.84765625 108.19628906 C-171.87279297 107.44412109 -171.89792969 106.69195312 -171.92382812 105.91699219 C-172.00016819 100.03880682 -171.20039381 94.99442952 -167.03515625 90.50878906 C-166.58140625 90.09628906 -166.12765625 89.68378906 -165.66015625 89.25878906 C-165.16515625 87.77378906 -165.16515625 87.77378906 -164.66015625 86.25878906 C-155.25513948 81.25612057 -145.32761067 80.99311223 -134.86896896 81.20015526 C-132.75504299 81.24027412 -130.64146325 81.26418045 -128.5272522 81.2837677 C-122.52313711 81.34114898 -116.51953789 81.4180601 -110.51611328 81.52612305 C-87.61463516 82.11622054 -87.61463516 82.11622054 -65.66015625 76.25878906 C-64.00309642 75.88058063 -62.33812873 75.52952369 -60.66015625 75.25878906 C-60.66015625 74.59878906 -60.66015625 73.93878906 -60.66015625 73.25878906 C-59.05078125 71.89160156 -59.05078125 71.89160156 -56.91015625 70.38378906 C-54.48581134 68.63620475 -52.40683038 67.00546319 -50.28515625 64.88378906 C-49.48078125 64.07941406 -49.48078125 64.07941406 -48.66015625 63.25878906 C-48.00015625 63.25878906 -47.34015625 63.25878906 -46.66015625 63.25878906 C-46.66015625 62.26878906 -46.66015625 61.27878906 -46.66015625 60.25878906 C-46.00015625 60.25878906 -45.34015625 60.25878906 -44.66015625 60.25878906 C-44.43328125 59.53691406 -44.20640625 58.81503906 -43.97265625 58.07128906 C-41.933205 53.70103638 -39.26057428 51.07760759 -34.97265625 48.88378906 C-30.40282 48.02155581 -26.23233805 48.59013006 -21.66015625 49.25878906 C-21.56504223 40.71966396 -21.5991077 32.27416246 -22.28515625 23.75878906 C-23.04889083 12.21157819 -23.04889083 12.21157819 -20.66015625 7.25878906 C-14.88409044 0.9454148 -8.25623371 0.01000188 0 0 Z " fill="#353534" transform="translate(250.66015625,56.7412109375)"/>
<path d="M0 0 C58.74 0 117.48 0 178 0 C180.30285235 46.05704698 180.30285235 46.05704698 180.125 61.5 C180.11486486 63.14843154 180.10575909 64.79686972 180.09765625 66.4453125 C180.07666596 70.29705592 180.04283904 74.1484404 180 78 C157.66037955 78.09340773 135.32079126 78.16396177 112.98101521 78.20724869 C102.60845223 78.22788105 92.23601053 78.25601458 81.86352539 78.30175781 C72.8237197 78.34160488 63.78400184 78.36742791 54.74411076 78.37635398 C49.95674627 78.38157233 45.16963304 78.39385139 40.38234901 78.42292023 C35.87700124 78.45005566 31.37200842 78.45844879 26.86658669 78.45243073 C25.21257092 78.4535318 23.55854337 78.46149694 21.90459824 78.4768219 C19.6463149 78.49672133 17.38937203 78.49194047 15.13105774 78.48101807 C13.23539047 78.48654882 13.23539047 78.48654882 11.30142689 78.49219131 C7.33169438 77.90036604 5.79283184 76.8434453 3 74 C0 69 0 69 0 56 C25.08 55.67 50.16 55.34 76 55 C77.6082664 51.78346721 77.14179685 48.27848471 77.1328125 44.74609375 C77.13424759 43.52201561 77.13424759 43.52201561 77.13571167 42.27320862 C77.13639256 40.54745405 77.13454461 38.82169692 77.13037109 37.09594727 C77.12501468 34.44476617 77.13032267 31.79375397 77.13671875 29.14257812 C77.13605809 27.46874962 77.13477717 25.79492123 77.1328125 24.12109375 C77.13584885 22.92425209 77.13584885 22.92425209 77.13894653 21.70323181 C77.46981962 18.05204724 77.46981962 18.05204724 76 15 C73.62798453 14.87513046 71.28359657 14.81399948 68.90991211 14.79467773 C67.79778603 14.77982834 67.79778603 14.77982834 66.66319275 14.76467896 C64.20127607 14.73297534 61.73934007 14.70827174 59.27734375 14.68359375 C57.57482895 14.66303186 55.87231935 14.6420356 54.16981506 14.62062073 C49.68012691 14.56532101 45.19039208 14.51594672 40.70062256 14.46777344 C36.12263822 14.41761594 31.54472197 14.36189992 26.96679688 14.30664062 C17.97792049 14.19896247 8.98898654 14.0980525 0 14 C0 9.38 0 4.76 0 0 Z " fill="#9DEDC8" transform="translate(66,221)"/>
<path d="M0 0 C22.44 0 44.88 0 68 0 C67.03888985 45.99598584 67.03888985 45.99598584 66.5 59.625 C66.46463135 60.54917725 66.4292627 61.47335449 66.39282227 62.42553711 C66.22021687 66.46873361 65.95969472 70.47484099 65.52954102 74.4987793 C64.68851833 83.63504562 64.53237909 92.81383529 64.24609375 101.98046875 C64.18054165 104.00499869 64.11470557 106.02951945 64.04859924 108.05403137 C63.87645551 113.34908402 63.70813803 118.64425146 63.54064941 123.93945312 C63.33831427 130.3107353 63.13116995 136.68186276 62.92484283 143.05301666 C62.61290128 152.7018983 62.30702385 162.35095499 62 172 C43.52 172 25.04 172 6 172 C4.02875847 117.19948551 4.02875847 117.19948551 3.6796875 102.7421875 C3.65774826 101.83362503 3.63580902 100.92506256 3.61320496 99.9889679 C3.51490828 95.82798116 3.42417936 91.66695104 3.34204102 87.50561523 C3.32573639 86.75921783 3.30943176 86.01282043 3.29263306 85.24380493 C3.24976833 83.28150003 3.21146239 81.31909694 3.17358398 79.35668945 C3.07399322 76.08397121 3.07399322 76.08397121 2.50772095 73.23439026 C1.96201506 69.75802037 1.79811905 66.4105302 1.70288086 62.89306641 C1.68322769 62.20944031 1.66357452 61.52581421 1.64332581 60.82147217 C1.57990241 58.58159172 1.52233054 56.34160249 1.46484375 54.1015625 C1.42179475 52.54071059 1.37837806 50.97986878 1.33460999 49.41903687 C1.22080917 45.32567523 1.11198306 41.23219609 1.00421143 37.13867188 C0.87365228 32.21923175 0.73688136 27.29996085 0.60115814 22.38066101 C0.39602702 14.92055916 0.19876087 7.46028655 0 0 Z " fill="#F9CE6B" transform="translate(247,84)"/>
<path d="M0 0 C1.98 0.99 1.98 0.99 4 2 C4 2.66 4 3.32 4 4 C4.99 4.33 5.98 4.66 7 5 C12.30680568 20.6255945 10.04386069 39.05405133 8.4375 55.1875 C7.92706568 60.52742827 7.96670133 65.82926853 8 71.1875 C8.04333174 78.21962225 7.90102833 85.16548449 7.42797852 92.18310547 C6.98235254 98.88864073 6.69933507 105.59745208 6.4375 112.3125 C6.39375244 113.38588623 6.35000488 114.45927246 6.30493164 115.56518555 C6.11541428 120.52123604 5.98634993 125.45835923 6.03515625 130.41796875 C6.06096244 136.90006244 5.7382307 143.35414328 5.42591858 149.82669067 C5.061878 157.43622398 4.76564449 165.04657662 4.5 172.66015625 C4.45883057 173.83508636 4.41766113 175.01001648 4.37524414 176.22055054 C4.20706501 181.04648011 4.04091124 185.87247831 3.875 190.69848633 C3.75111587 194.28991635 3.62603734 197.88130116 3.5 201.47265625 C3.4594751 202.62827057 3.4189502 203.78388489 3.37719727 204.97451782 C3.0874184 213.04148795 2.73619526 221.1038881 2.3046875 229.16456604 C2.06750788 233.75750031 1.96268572 238.32620016 2.00292969 242.9254303 C1.99242295 250.36545877 1.15758216 258.23931348 -4 264 C-11.15997677 267.63294682 -18.75572698 267.44136795 -26.59765625 267.43237305 C-27.95669937 267.44139986 -29.31573443 267.45171817 -30.67475891 267.46321392 C-34.36414449 267.49072094 -38.05337651 267.50001982 -41.74285126 267.50604773 C-45.67123873 267.51565176 -49.59951457 267.54227391 -53.52783203 267.56680298 C-61.08279359 267.61125373 -68.63773173 267.64007007 -76.19278717 267.66269231 C-82.25696923 267.68107099 -88.32110738 267.70481787 -94.38525391 267.73251343 C-95.67109328 267.73837921 -95.67109328 267.73837921 -96.9829092 267.74436349 C-98.71393974 267.75228885 -100.44497021 267.76023078 -102.1760006 267.76818931 C-115.81653435 267.83046107 -129.45707408 267.8818168 -143.09768105 267.924842 C-158.22709164 267.97271896 -173.35568439 268.0559874 -188.48474121 268.17323112 C-194.14541723 268.21468545 -199.80615742 268.24455304 -205.46691895 268.2716074 C-209.60080919 268.29173493 -213.73443328 268.31771296 -217.86816406 268.35971069 C-221.61262266 268.39734976 -225.35667635 268.41593762 -229.10131836 268.41913986 C-231.00318572 268.42538148 -232.90495922 268.45135046 -234.80664062 268.47866821 C-246.07114328 268.45027985 -258.42923402 266.71168657 -267.1953125 259.0703125 C-273.30031607 252.06673698 -275.15054067 244.14046692 -275.5546875 235.10546875 C-275.59673309 234.18606003 -275.63877869 233.26665131 -275.68209839 232.31938171 C-276.15211021 220.9002174 -276.14986989 209.47855976 -276.13037109 198.05151367 C-276.12499223 194.30708803 -276.13036191 190.5627815 -276.13671875 186.81835938 C-276.1406355 176.39635901 -276.12525635 165.97790737 -275.61328125 155.56640625 C-275.5823941 154.86155594 -275.55150696 154.15670563 -275.51968384 153.43049622 C-275.19030334 147.86102261 -274.22078003 142.88806088 -270 139 C-267.43103589 137.89728427 -264.84281672 137.07212578 -262.1796875 136.2265625 C-259.79624539 135.16969549 -259.79624539 135.16969549 -258.9453125 132.6484375 C-258.46580016 130.08857931 -258.20354051 127.59405886 -258 125 C-257.505 123.515 -257.505 123.515 -257 122 C-256.34 122 -255.68 122 -255 122 C-255 121.34 -255 120.68 -255 120 C-254.34 120 -253.68 120 -253 120 C-253 119.34 -253 118.68 -253 118 C-247.25 115 -247.25 115 -245 115 C-245.03480469 113.85402344 -245.06960937 112.70804687 -245.10546875 111.52734375 C-245.13362703 109.99741061 -245.16092499 108.46746146 -245.1875 106.9375 C-245.21263672 106.18533203 -245.23777344 105.43316406 -245.26367188 104.65820312 C-245.34001194 98.78001776 -244.54023756 93.73564045 -240.375 89.25 C-239.92125 88.8375 -239.4675 88.425 -239 88 C-238.505 86.515 -238.505 86.515 -238 85 C-234.4375 83.3125 -234.4375 83.3125 -231 82 C-231 85 -231 85 -233 87.0625 C-235.83283227 91.2232224 -235.68652792 95.09052706 -235 100 C-234.05508372 102.24168653 -234.05508372 102.24168653 -233 104 C-233.66 104.99 -234.32 105.98 -235 107 C-235.45394552 109.27912938 -235.45394552 109.27912938 -235.625 111.6875 C-235.69976562 112.49574219 -235.77453125 113.30398437 -235.8515625 114.13671875 C-235.90054688 114.75160156 -235.94953125 115.36648437 -236 116 C-236.69867188 116.06058594 -237.39734375 116.12117188 -238.1171875 116.18359375 C-239.02726562 116.26738281 -239.93734375 116.35117188 -240.875 116.4375 C-241.77992188 116.51871094 -242.68484375 116.59992188 -243.6171875 116.68359375 C-246.01110861 116.86989285 -246.01110861 116.86989285 -248 118 C-248.33 124.6 -248.66 131.2 -249 138 C-256.4375 138.4375 -256.4375 138.4375 -258.78295898 138.56811523 C-262.18161081 138.49795579 -262.18161081 138.49795579 -265 140 C-265.11657642 142.87935905 -265.16802518 145.73504315 -265.17700195 148.61547852 C-265.18685875 149.97167549 -265.18685875 149.97167549 -265.19691467 151.35527039 C-265.21670775 154.36314976 -265.22832654 157.37097896 -265.23828125 160.37890625 C-265.24235678 161.40506483 -265.2464323 162.43122341 -265.25063133 163.48847771 C-265.27152246 168.92468949 -265.28580825 174.36087584 -265.29516602 179.79711914 C-265.30620789 185.40710166 -265.34057353 191.01668505 -265.38033772 196.62652683 C-265.40652453 200.94262922 -265.41485994 205.2586371 -265.41844749 209.57481194 C-265.42331187 211.64200458 -265.43492158 213.70919305 -265.45348549 215.77630806 C-265.47790958 218.67744265 -265.47690525 221.5775532 -265.4699707 224.47875977 C-265.48278076 225.32739594 -265.49559082 226.1760321 -265.50878906 227.05038452 C-265.45364283 233.40763787 -263.95496321 238.71844649 -259.62341785 243.52872562 C-253.48672781 249.04232021 -247.10957371 249.29339003 -239.30122375 249.26069641 C-237.84500611 249.26643473 -237.84500611 249.26643473 -236.35936993 249.27228898 C-233.10972328 249.28259941 -229.86025396 249.27863057 -226.6105957 249.2746582 C-224.27963091 249.27900562 -221.94866754 249.28418887 -219.6177063 249.29014587 C-213.28953349 249.30354042 -206.96142039 249.30411428 -200.63323617 249.30158257 C-194.68676071 249.3003785 -188.74029533 249.30658857 -182.79382291 249.31201603 C-170.30243854 249.32288601 -157.8110812 249.32073104 -145.31969532 249.31463119 C-133.88601746 249.30945668 -122.45242466 249.32073247 -111.01876364 249.33972941 C-99.2788523 249.35908583 -87.53898126 249.36736805 -75.79905385 249.36360615 C-69.20774979 249.36178919 -62.61652372 249.36447098 -56.02523232 249.37832069 C-49.83233184 249.39084677 -43.63960254 249.38900463 -37.44670486 249.37590981 C-35.16941585 249.37353346 -32.89211498 249.37631624 -30.61483955 249.38453293 C-27.51563294 249.39491233 -24.4170102 249.38697101 -21.31782532 249.3742218 C-20.40850181 249.38159609 -19.49917831 249.38897037 -18.56229955 249.39656812 C-17.73446185 249.38936158 -16.90662414 249.38215503 -16.05370045 249.37473011 C-15.3381423 249.37478513 -14.62258415 249.37484014 -13.88534242 249.37489682 C-11.39832498 248.88035804 -10.51689386 248.00438088 -9 246 C-8.64212009 243.40774172 -8.46629407 241.03593789 -8.41577148 238.43481445 C-8.38923996 237.66182447 -8.36270844 236.8888345 -8.33537292 236.09242058 C-8.25031445 233.5162706 -8.18578684 230.9400167 -8.12109375 228.36328125 C-8.06496408 226.54962604 -8.00748964 224.736012 -7.94874573 222.92243958 C-7.82635131 219.06382505 -7.71275265 215.20509258 -7.60620117 211.3460083 C-7.43857603 205.28017368 -7.25158646 199.21503931 -7.06054688 193.14990234 C-6.8720043 187.14484984 -6.68397884 181.13979325 -6.50253296 175.13452148 C-6.12413619 162.63935324 -5.6829961 150.1497914 -5.11520386 137.66162109 C-4.05852912 114.39518294 -3.27547408 91.11811157 -2.47912598 67.84163666 C-2.37629654 64.85021774 -2.27209664 61.8588496 -2.16748047 58.86749268 C-2.00071099 54.09295254 -1.83781245 49.3182942 -1.6776619 44.5435276 C-1.61788273 42.77637523 -1.55696223 41.00926098 -1.4947319 39.24219322 C-1.12376272 28.67059615 -0.93583194 18.12404812 -1.05794334 7.54515553 C-1.0742904 5.36341277 -1.0420841 3.18139809 -1 1 C-0.67 0.67 -0.34 0.34 0 0 Z " fill="#030303" transform="translate(324,58)"/>
<path d="M0 0 C0.66 0 1.32 0 2 0 C2.485864 1.51870698 2.96331201 3.04010699 3.4375 4.5625 C3.70433594 5.40941406 3.97117187 6.25632812 4.24609375 7.12890625 C5.98278641 13.7427358 6.12956765 20.15334975 6.0625 26.9375 C6.05798828 27.81212891 6.05347656 28.68675781 6.04882812 29.58789062 C6.03714834 31.72529047 6.01921689 33.86265463 6 36 C3.69 36.99 1.38 37.98 -1 39 C-1 40.65 -1 42.3 -1 44 C1.31 44.99 3.62 45.98 6 47 C6.1875 49.875 6.1875 49.875 6 53 C2.72123392 55.18584405 1.78225512 55.25079019 -2.01686096 55.25396729 C-3.05303558 55.25960693 -4.08921021 55.26524658 -5.15678406 55.27105713 C-6.29299698 55.26700867 -7.4292099 55.26296021 -8.59985352 55.25878906 C-10.39522552 55.26404602 -10.39522552 55.26404602 -12.22686768 55.26940918 C-15.5098319 55.27670988 -18.7926352 55.27498967 -22.07559705 55.26865101 C-25.50864837 55.26359164 -28.94168886 55.26828218 -32.3747406 55.27142334 C-38.13908828 55.27506268 -43.90338471 55.27026423 -49.66772461 55.26074219 C-56.33711428 55.24985251 -63.00638172 55.25338702 -69.67576844 55.264395 C-75.39811646 55.27346265 -81.12042764 55.27475588 -86.84278053 55.26951766 C-90.26225313 55.26639573 -93.68166823 55.26599478 -97.10113716 55.27259064 C-100.91069032 55.27764576 -104.72000566 55.26995997 -108.52954102 55.25878906 C-109.66777817 55.26283752 -110.80601532 55.26688599 -111.97874451 55.27105713 C-113.0120993 55.26541748 -114.0454541 55.25977783 -115.11012268 55.25396729 C-116.01142694 55.25321323 -116.91273119 55.25245918 -117.84134769 55.25168228 C-120 55 -120 55 -122 53 C-122.1875 49.9375 -122.1875 49.9375 -122 47 C-120.04776011 45.04776011 -116.30218871 45.81556385 -113.63452148 45.79467773 C-112.86384338 45.78477814 -112.09316528 45.77487854 -111.2991333 45.76467896 C-108.73981853 45.73297299 -106.18048517 45.7082708 -103.62109375 45.68359375 C-101.85131841 45.66303206 -100.08154806 45.64203581 -98.31178284 45.62062073 C-93.6445418 45.56531891 -88.97725586 45.51594554 -84.30993652 45.46777344 C-79.55098454 45.41761747 -74.79209809 45.36190066 -70.03320312 45.30664062 C-60.68885802 45.19895992 -51.3444561 45.09753712 -42 45 C-42 42.69 -42 40.38 -42 38 C-42.98749741 37.98969254 -43.97499481 37.97938507 -44.99241638 37.96876526 C-54.27805543 37.87120126 -63.5636249 37.76848377 -72.84915066 37.66066074 C-77.62344948 37.60538912 -82.39775438 37.55196248 -87.17211914 37.50268555 C-91.77571693 37.45510435 -96.37923781 37.40276407 -100.98274422 37.34705925 C-102.74307413 37.3266073 -104.50342515 37.30789902 -106.26379204 37.29092598 C-108.72077988 37.26694456 -111.17762099 37.23688191 -113.63452148 37.20532227 C-114.73719109 37.19668907 -114.73719109 37.19668907 -115.86213684 37.18788147 C-120.88594784 37.11405216 -120.88594784 37.11405216 -122 36 C-122.1875 33.0625 -122.1875 33.0625 -122 30 C-119.56693587 27.56693587 -118.27691595 27.76010884 -114.95669556 27.73213196 C-113.90643692 27.73831795 -113.90643692 27.73831795 -112.83496094 27.74462891 C-111.72708725 27.73919823 -111.72708725 27.73919823 -110.59683228 27.73365784 C-108.98829129 27.72675275 -107.37972682 27.72426048 -105.77117157 27.72560501 C-103.21303071 27.72657056 -100.65530983 27.7136191 -98.097229 27.69662476 C-90.8220154 27.65040079 -83.54683966 27.62580691 -76.27148438 27.61914062 C-71.82099811 27.61407957 -67.37094095 27.58958536 -62.92060089 27.55381393 C-61.23521776 27.54410693 -59.54977484 27.54163346 -57.86437225 27.54698563 C-38.2104686 27.60638779 -21.49025778 22.72029308 -6.8359375 8.96484375 C-4.22858783 6.17442485 -2.16102991 3.14331624 0 0 Z " fill="#F7CBBC" transform="translate(219,120)"/>
<path d="M0 0 C1.21720482 0.00136711 1.21720482 0.00136711 2.45899963 0.00276184 C3.29250443 -0.00152328 4.12600922 -0.00580841 4.98477173 -0.01022339 C6.74920238 -0.01597126 8.51365674 -0.01646359 10.27809143 -0.01213074 C12.98008121 -0.00897336 15.68097367 -0.03241436 18.38282776 -0.05778503 C20.095717 -0.06005822 21.80860919 -0.06076143 23.52149963 -0.05973816 C24.33094528 -0.06894791 25.14039093 -0.07815765 25.97436523 -0.08764648 C31.59602875 -0.04121251 31.59602875 -0.04121251 33.78494263 1.59707642 C35.9948712 4.56250077 35.15636084 8.10204782 34.86915588 11.61604309 C34.81308167 12.45635071 34.75700745 13.29665833 34.69923401 14.16242981 C34.19740965 21.33719756 33.49328861 28.49546946 32.78834534 35.65266418 C31.9950463 44.06295986 31.67327105 52.4731149 31.48634338 60.91731262 C31.1052049 74.25499408 31.1052049 74.25499408 28.05665588 77.30354309 C23.79917162 77.52164065 19.53619864 77.4893347 15.2736969 77.48884583 C13.13148589 77.49103052 10.98979117 77.50917821 8.84767151 77.52815247 C7.49155349 77.53108668 6.13543301 77.53307129 4.77931213 77.53401184 C3.53931458 77.53812073 2.29931702 77.54222961 1.02174377 77.54646301 C-1.94334412 77.30354309 -1.94334412 77.30354309 -3.94334412 75.30354309 C-4.39200996 72.34671053 -4.70644507 69.46766078 -4.94334412 66.49104309 C-5.02310486 65.55196106 -5.1028656 64.61287903 -5.18504333 63.64533997 C-5.97160935 53.87536213 -6.52466034 44.08948442 -7.06834412 34.30354309 C-7.11281677 33.51716461 -7.15728943 32.73078613 -7.20310974 31.920578 C-8.49777945 8.74121983 -8.49777945 8.74121983 -7.94334412 2.30354309 C-5.34877409 -0.29102694 -3.53646636 0.04488907 0 0 Z " fill="#3A3836" transform="translate(267.94334411621094,92.69645690917969)"/>
<path d="M0 0 C52.47 0 104.94 0 159 0 C159 4.29 159 8.58 159 13 C106.53 13 54.06 13 0 13 C0 8.71 0 4.42 0 0 Z " fill="#A29892" transform="translate(84,183)"/>
<path d="M0 0 C22.44 0 44.88 0 68 0 C68 8.58 68 17.16 68 26 C45.56 26 23.12 26 0 26 C0 17.42 0 8.84 0 0 Z " fill="#81EABA" transform="translate(67,243)"/>
<path d="M0 0 C58.41 0 116.82 0 177 0 C177 2.97 177 5.94 177 9 C118.59 9 60.18 9 0 9 C0 6.03 0 3.06 0 0 Z " fill="#7EE3B5" transform="translate(66,204)"/>
<path d="M0 0 C8.58 0 17.16 0 26 0 C26 10.13151927 26 10.13151927 25.6328125 15.16015625 C25.55272949 16.27293945 25.47264648 17.38572266 25.39013672 18.53222656 C25.3026416 19.6972168 25.21514648 20.86220703 25.125 22.0625 C24.99182373 23.88152832 24.99182373 23.88152832 24.85595703 25.73730469 C23.98483174 37.49826166 23.01141492 49.2503713 22 61 C16.06 61 10.12 61 4 61 C0.74031891 20.28473804 0.74031891 20.28473804 0 0 Z " fill="#F2E1F5" transform="translate(268,101)"/>
<path d="M0 0 C1.68687479 3.37374959 1.02573126 7.22735045 0.96875 10.9375 C0.88412148 22.43014678 1.23720605 33.89163813 1.65625 45.375 C1.68930237 46.28486664 1.72235474 47.19473328 1.75640869 48.13217163 C1.96314405 53.79178524 2.17594438 59.45115883 2.39068604 65.11047363 C2.6799316 72.75618181 2.96156761 80.40217439 3.24345398 88.04815674 C3.34172354 90.69540981 3.44198526 93.34258134 3.54260254 95.98974609 C3.60330836 97.61295435 3.6639792 99.23616392 3.72460938 100.859375 C3.75266159 101.58353607 3.78071381 102.30769714 3.80961609 103.05380249 C3.96922933 107.37364433 4.02486775 111.67830287 4 116 C1.36 116 -1.28 116 -4 116 C-4.13277344 115.32453125 -4.26554688 114.6490625 -4.40234375 113.953125 C-4.66724609 112.61507812 -4.66724609 112.61507812 -4.9375 111.25 C-5.19853516 109.92742187 -5.19853516 109.92742187 -5.46484375 108.578125 C-5.94131671 106.0505102 -5.94131671 106.0505102 -6.69140625 103.859375 C-7 102 -7 102 -5 99 C-3.42411797 82.44300573 -6.89855574 66.29750594 -13 51 C-13.495 49.515 -13.495 49.515 -14 48 C-12.35 48 -10.7 48 -9 48 C-8.90488598 39.46087489 -8.93895145 31.01537339 -9.625 22.5 C-10.52424598 8.90393758 -10.52424598 8.90393758 -6.59765625 4.38671875 C-4.55339169 2.61235709 -2.41992809 1.20996404 0 0 Z " fill="#030303" transform="translate(238,58)"/>
<path d="M0 0 C17.82 0 35.64 0 54 0 C54 25 54 25 53 35 C50.03 35 47.06 35 44 35 C43.97494385 34.27820557 43.9498877 33.55641113 43.92407227 32.81274414 C43.80848698 29.562465 43.68559226 26.31250312 43.5625 23.0625 C43.52318359 21.92619141 43.48386719 20.78988281 43.44335938 19.61914062 C43.40146484 18.53955078 43.35957031 17.45996094 43.31640625 16.34765625 C43.26141968 14.84730835 43.26141968 14.84730835 43.20532227 13.31665039 C43.25328159 11.03930812 43.25328159 11.03930812 42 10 C39.79349344 9.89987599 37.58377614 9.8691882 35.375 9.8671875 C34.38185791 9.86575241 34.38185791 9.86575241 33.36865234 9.86428833 C31.96647039 9.86360674 30.5642853 9.86545958 29.16210938 9.86962891 C27.00904287 9.87497754 24.85618498 9.8696833 22.703125 9.86328125 C21.34374954 9.86394204 19.9843742 9.86522321 18.625 9.8671875 C16.75714844 9.86887939 16.75714844 9.86887939 14.8515625 9.87060547 C12.10094569 9.67427873 12.10094569 9.67427873 11 11 C10.84235595 12.77869726 10.74899323 14.56318476 10.68359375 16.34765625 C10.64169922 17.42724609 10.59980469 18.50683594 10.55664062 19.61914062 C10.51732422 20.75544922 10.47800781 21.89175781 10.4375 23.0625 C10.39431641 24.20267578 10.35113281 25.34285156 10.30664062 26.51757812 C10.20017161 29.34492195 10.09815793 32.17235738 10 35 C7.03 35 4.06 35 1 35 C0.82672523 32.35446555 0.66143745 29.70876516 0.5 27.0625 C0.45230469 26.34642578 0.40460938 25.63035156 0.35546875 24.89257812 C-0.14088844 16.56086816 0 8.40341383 0 0 Z " fill="#9F948E" transform="translate(254,264)"/>
<path d="M0 0 C22.44 0 44.88 0 68 0 C68 2.97 68 5.94 68 9 C45.56 9 23.12 9 0 9 C0 6.03 0 3.06 0 0 Z " fill="#F7C563" transform="translate(247,67)"/>
<path d="M0 0 C5.94 0 11.88 0 18 0 C18 5.94 18 11.88 18 18 C12.06 18 6.12 18 0 18 C0 12.06 0 6.12 0 0 Z " fill="#8D827C" transform="translate(272,281)"/>
<path d="M0 0 C0.66 0.66 1.32 1.32 2 2 C1.39513729 3.62005941 0.7387518 5.22091749 0.0625 6.8125 C-0.29714844 7.70582031 -0.65679687 8.59914063 -1.02734375 9.51953125 C-3.99290722 13.2485071 -7.42541658 13.99372284 -12 15 C-16.53482033 15.42729418 -21.04503717 15.43759502 -25.59765625 15.43237305 C-26.95669937 15.44139986 -28.31573443 15.45171817 -29.67475891 15.46321392 C-33.36414449 15.49072094 -37.05337651 15.50001982 -40.74285126 15.50604773 C-44.67123873 15.51565176 -48.59951457 15.54227391 -52.52783203 15.56680298 C-60.08279359 15.61125373 -67.63773173 15.64007007 -75.19278717 15.66269231 C-81.25696923 15.68107099 -87.32110738 15.70481787 -93.38525391 15.73251343 C-94.67109328 15.73837921 -94.67109328 15.73837921 -95.9829092 15.74436349 C-97.71393974 15.75228885 -99.44497021 15.76023078 -101.1760006 15.76818931 C-114.81653435 15.83046107 -128.45707408 15.8818168 -142.09768105 15.924842 C-157.22709164 15.97271896 -172.35568439 16.0559874 -187.48474121 16.17323112 C-193.14541723 16.21468545 -198.80615742 16.24455304 -204.46691895 16.2716074 C-208.60080919 16.29173493 -212.73443328 16.31771296 -216.86816406 16.35971069 C-220.61262266 16.39734976 -224.35667635 16.41593762 -228.10131836 16.41913986 C-230.00318572 16.42538148 -231.90495922 16.45135046 -233.80664062 16.47866821 C-245.58691246 16.44898003 -257.1582723 14.4463674 -266.4609375 6.78125 C-268.13868934 4.83948645 -268.61454462 3.51096651 -269 1 C-268.05125 1.886875 -267.1025 2.77375 -266.125 3.6875 C-256.76934976 11.67957369 -247.35544781 13.1522541 -235.41116333 13.14044189 C-234.4641483 13.14341302 -233.51713327 13.14638414 -232.54142082 13.1494453 C-229.37802801 13.15809532 -226.21467321 13.15963739 -223.05126953 13.16113281 C-220.77915364 13.16576349 -218.50703853 13.17078849 -216.23492432 13.17617798 C-210.06964219 13.18927732 -203.90437095 13.19574178 -197.73907709 13.20018864 C-193.88607672 13.20312251 -190.0330793 13.20722786 -186.18008041 13.21169281 C-175.50147401 13.22379506 -164.82287122 13.23418006 -154.1442585 13.2375679 C-153.46178259 13.23778747 -152.77930669 13.23800703 -152.07614969 13.23823325 C-151.05007155 13.23856067 -151.05007155 13.23856067 -150.00326455 13.2388947 C-148.61724798 13.23933816 -147.23123141 13.23978472 -145.84521484 13.24023438 C-145.15771152 13.2404558 -144.4702082 13.24067723 -143.76187144 13.24090537 C-132.62007474 13.24485407 -121.4783434 13.2623136 -110.33657195 13.2855939 C-98.88362459 13.30933039 -87.43072474 13.32151294 -75.97774971 13.32293582 C-69.55281732 13.32398363 -63.12797729 13.32988686 -56.70306778 13.34775543 C-50.66034619 13.36423518 -44.61778641 13.36639197 -38.57505035 13.35761642 C-36.35994152 13.35684609 -34.14482399 13.36118832 -31.92973709 13.37107468 C-28.90056728 13.3837996 -25.87197014 13.37791421 -22.84280396 13.36749268 C-21.53523956 13.37957728 -21.53523956 13.37957728 -20.20125973 13.39190602 C-14.60269448 13.34700957 -8.95488493 12.81796219 -4 10 C-2.07638683 6.89560161 -1.10392223 3.46946986 0 0 Z " fill="#0F0F0F" transform="translate(323,310)"/>
<path d="M0 0 C2.0625 0.4375 2.0625 0.4375 4 1 C-4.72286897 16.00557845 -16.26435276 26.64466253 -33 32 C-42.44323272 34.44253133 -52.02070904 34.34561543 -61.69921875 34.4140625 C-63.38744517 34.43280858 -65.07566255 34.45238446 -66.76387024 34.4727478 C-71.1711999 34.52371207 -75.57855982 34.563527 -79.98602295 34.60089111 C-84.49791732 34.64115677 -89.00968972 34.69214526 -93.52148438 34.7421875 C-102.34757241 34.83852305 -111.17372166 34.92306104 -120 35 C-119.67 34.34 -119.34 33.68 -119 33 C-110.80753765 31.29386421 -102.01962816 31.941793 -93.70703125 32.078125 C-91.65106986 32.10025486 -89.59509323 32.11867622 -87.53909588 32.13712692 C-82.53218287 32.18230848 -77.5256648 32.23527011 -72.51928711 32.32226562 C-50.30543336 32.73930771 -50.30543336 32.73930771 -29 27 C-27.34273711 26.62268237 -25.67781816 26.27168938 -24 26 C-24 25.34 -24 24.68 -24 24 C-22.390625 22.6328125 -22.390625 22.6328125 -20.25 21.125 C-17.82565509 19.37741569 -15.74667413 17.74667413 -13.625 15.625 C-13.08875 15.08875 -12.5525 14.5525 -12 14 C-11.34 14 -10.68 14 -10 14 C-10 13.01 -10 12.02 -10 11 C-9.34 11 -8.68 11 -8 11 C-7.773125 10.278125 -7.54625 9.55625 -7.3125 8.8125 C-5.74730392 5.45850839 -3.70307284 3.49514416 -1 1 C-0.67 0.67 -0.34 0.34 0 0 Z " fill="#0E0E0E" transform="translate(214,106)"/>
<path d="M0 0 C0.65830811 -0.00191345 1.31661621 -0.0038269 1.99487305 -0.00579834 C3.3868854 -0.0071595 4.77891047 -0.00346783 6.17089844 0.00488281 C8.30432589 0.015584 10.43691131 0.00498594 12.5703125 -0.0078125 C13.92187686 -0.00649089 15.2734407 -0.00392847 16.625 0 C18.47544922 0.00338379 18.47544922 0.00338379 20.36328125 0.00683594 C23.3125 0.265625 23.3125 0.265625 25.3125 2.265625 C24.75694444 6.82118056 24.75694444 6.82118056 23.3125 8.265625 C21.02098583 8.35353475 18.72677476 8.37256538 16.43359375 8.36328125 C15.40360008 8.36115883 15.40360008 8.36115883 14.35279846 8.35899353 C12.15182199 8.35337979 9.95094591 8.34082507 7.75 8.328125 C6.26106917 8.32311176 4.77213676 8.31854855 3.28320312 8.31445312 C-0.37373075 8.30340593 -4.03060558 8.28613213 -7.6875 8.265625 C-8.3125 5.390625 -8.3125 5.390625 -8.6875 2.265625 C-5.85490425 -0.56697075 -3.9605534 0.00724239 0 0 Z " fill="#3B3935" transform="translate(272.6875,212.734375)"/>
<path d="M0 0 C1.05368774 0.00012085 1.05368774 0.00012085 2.12866211 0.00024414 C4.27087312 -0.00194055 6.41256783 -0.02008824 8.5546875 -0.0390625 C9.91080552 -0.04199671 11.266926 -0.04398132 12.62304688 -0.04492188 C13.86304443 -0.04903076 15.10304199 -0.05313965 16.38061523 -0.05737305 C19.34570312 0.18554688 19.34570312 0.18554688 21.34570312 2.18554688 C20.79014757 6.74110243 20.79014757 6.74110243 19.34570312 8.18554688 C15.08821886 8.40364443 10.82524588 8.37133848 6.56274414 8.37084961 C4.42053313 8.3730343 2.27883842 8.39118199 0.13671875 8.41015625 C-1.21939927 8.41309046 -2.57551975 8.41507507 -3.93164062 8.41601562 C-5.17163818 8.42012451 -6.41163574 8.4242334 -7.68920898 8.4284668 C-10.65429688 8.18554688 -10.65429688 8.18554688 -12.65429688 6.18554688 C-11.67210083 -1.86846067 -6.95887914 0.02524407 0 0 Z " fill="#393734" transform="translate(276.654296875,195.814453125)"/>
<path d="M0 0 C1.05368774 0.00012085 1.05368774 0.00012085 2.12866211 0.00024414 C4.27087312 -0.00194055 6.41256783 -0.02008824 8.5546875 -0.0390625 C9.91080552 -0.04199671 11.266926 -0.04398132 12.62304688 -0.04492188 C13.86304443 -0.04903076 15.10304199 -0.05313965 16.38061523 -0.05737305 C19.34570312 0.18554688 19.34570312 0.18554688 21.34570312 2.18554688 C20.79014757 6.74110243 20.79014757 6.74110243 19.34570312 8.18554688 C15.08821886 8.40364443 10.82524588 8.37133848 6.56274414 8.37084961 C4.42053313 8.3730343 2.27883842 8.39118199 0.13671875 8.41015625 C-1.21939927 8.41309046 -2.57551975 8.41507507 -3.93164062 8.41601562 C-5.17163818 8.42012451 -6.41163574 8.4242334 -7.68920898 8.4284668 C-10.65429688 8.18554688 -10.65429688 8.18554688 -12.65429688 6.18554688 C-11.67210083 -1.86846067 -6.95887914 0.02524407 0 0 Z " fill="#353533" transform="translate(276.654296875,178.814453125)"/>
<path d="M0 0 C2.0625 0.4375 2.0625 0.4375 4 1 C-2.48665131 12.15870884 -9.91895397 20.31993679 -21 27 C-21.66 26.67 -22.32 26.34 -23 26 C-22.31292969 25.50371094 -21.62585938 25.00742188 -20.91796875 24.49609375 C-15.51793289 20.42482208 -11.91685648 17.57207936 -10 11 C-9.34 11 -8.68 11 -8 11 C-7.773125 10.278125 -7.54625 9.55625 -7.3125 8.8125 C-5.74730392 5.45850839 -3.70307284 3.49514416 -1 1 C-0.67 0.67 -0.34 0.34 0 0 Z " fill="#060606" transform="translate(214,106)"/>
<path d="M0 0 C0 0.99 0 1.98 0 3 C-1.66666667 4.66666667 -3.33333333 6.33333333 -5 8 C-7.56166726 12.61273193 -7.23010436 17.19068386 -7.125 22.3125 C-7.11597656 23.14845703 -7.10695312 23.98441406 -7.09765625 24.84570312 C-7.07420989 26.89725969 -7.03834266 28.94866777 -7 31 C-7.66 31 -8.32 31 -9 31 C-10.76073434 11.60812851 -10.76073434 11.60812851 -8 6 C-5.70879391 3.36415566 -3.13356112 1.56678056 0 0 Z " fill="#0F0F0F" transform="translate(238,58)"/>
<path d="M0 0 C0.66 0.33 1.32 0.66 2 1 C1.31292969 1.52207031 0.62585938 2.04414063 -0.08203125 2.58203125 C-6.81492255 8.08200398 -9.74113483 12.36547606 -11 21 C-11.99 21 -12.98 21 -14 21 C-13.71125 20.360625 -13.4225 19.72125 -13.125 19.0625 C-11.6752275 15.11589708 -10.84221938 11.1125393 -10 7 C-9.34 7 -8.68 7 -8 7 C-8 6.34 -8 5.68 -8 5 C-7.34 5 -6.68 5 -6 5 C-6 4.34 -6 3.68 -6 3 C-4.03533587 1.93224776 -2.03144641 0.93446535 0 0 Z " fill="#0E0E0E" transform="translate(77,173)"/>
<path d="M0 0 C0.66 0.33 1.32 0.66 2 1 C2 5.29 2 9.58 2 14 C-2 15 -2 15 -4 15 C-4.33 14.01 -4.66 13.02 -5 12 C-3.35 12 -1.7 12 0 12 C0 8.04 0 4.08 0 0 Z " fill="#0F0F0F" transform="translate(229,94)"/>
<path d="M0 0 C1.32 0.66 2.64 1.32 4 2 C4 2.66 4 3.32 4 4 C4.99 4.33 5.98 4.66 7 5 C7.33 7.31 7.66 9.62 8 12 C5.87961365 9.38485683 3.86908256 6.80362384 2 4 C1.01 3.67 0.02 3.34 -1 3 C-0.67 2.01 -0.34 1.02 0 0 Z " fill="#0F0F0F" transform="translate(324,58)"/>
<path d="M0 0 C0.8353125 0.37125 0.8353125 0.37125 1.6875 0.75 C0.718125 1.36875 -0.25125 1.9875 -1.25 2.625 C-4.34085362 4.40678846 -4.34085362 4.40678846 -5.3125 6.75 C-5.9725 6.75 -6.6325 6.75 -7.3125 6.75 C-7.9725 8.07 -8.6325 9.39 -9.3125 10.75 C-9.6425 10.09 -9.9725 9.43 -10.3125 8.75 C-8.31729736 4.53790554 -5.16824161 -0.55872882 0 0 Z " fill="#0F0F0F" transform="translate(216.3125,106.25)"/>
<path d="M0 0 C0.66 0 1.32 0 2 0 C0.7874262 3.72433382 -0.50859979 7.37802806 -2 11 C-2.66 10.34 -3.32 9.68 -4 9 C-1.125 2.25 -1.125 2.25 0 0 Z " fill="#0F0F0F" transform="translate(83,147)"/>
<path d="M0 0 C0.99 0.33 1.98 0.66 3 1 C-0.75 4 -0.75 4 -3 4 C-3 4.66 -3 5.32 -3 6 C-3.66 6 -4.32 6 -5 6 C-3.63016497 2.83884224 -3.0109362 2.0072908 0 0 Z " fill="#0E0E0E" transform="translate(58,195)"/>
<path d="M0 0 C0.66 0.66 1.32 1.32 2 2 C1.030625 2.268125 0.06125 2.53625 -0.9375 2.8125 C-1.948125 3.204375 -2.95875 3.59625 -4 4 C-4.33 4.99 -4.66 5.98 -5 7 C-5.66 6.67 -6.32 6.34 -7 6 C-6 3 -6 3 -2.9375 1.3125 C-1.968125 0.879375 -0.99875 0.44625 0 0 Z " fill="#0F0F0F" transform="translate(92,140)"/>
<path d="" fill="#101010" transform="translate(0,0)"/>
</svg>
