<?xml version="1.0" standalone="no"?>
<!DOCTYPE svg PUBLIC "-//W3C//DTD SVG 20010904//EN"
 "http://www.w3.org/TR/2001/REC-SVG-20010904/DTD/svg10.dtd">
<svg version="1.0" xmlns="http://www.w3.org/2000/svg"
 width="378.000000pt" height="378.000000pt" viewBox="0 0 378.000000 378.000000"
 preserveAspectRatio="xMidYMid meet">

<g transform="translate(0.000000,378.000000) scale(0.100000,-0.100000)"
fill="#000000" stroke="none">
<path d="M2473 2965 c-72 -33 -103 -66 -103 -108 0 -34 18 -58 51 -70 9 -3 38
5 65 17 27 12 60 21 74 20 34 -2 106 -83 346 -386 180 -228 198 -248 227 -249
54 -2 119 -7 165 -14 37 -5 42 -4 35 8 -11 20 -394 475 -519 617 -153 174
-173 190 -237 190 -34 0 -70 -9 -104 -25z"/>
<path d="M1182 2941 c-52 -42 -737 -770 -730 -777 2 -1 57 4 123 11 l120 13
35 39 c284 317 493 536 542 568 27 17 29 16 94 -14 58 -27 69 -30 92 -19 15 7
33 24 41 38 29 54 -35 127 -143 164 -78 27 -117 22 -174 -23z"/>
<path d="M2560 2093 c-232 -23 -315 -47 -371 -107 l-41 -43 -63 32 c-141 74
-271 67 -407 -22 l-28 -18 -30 37 c-73 88 -169 103 -675 103 -411 0 -509 -10
-615 -63 -48 -23 -59 -35 -85 -86 -27 -54 -30 -70 -34 -177 -3 -101 1 -132 23
-223 91 -362 243 -521 561 -589 60 -12 215 -14 290 -3 98 15 208 54 270 97
121 81 247 283 311 494 21 72 27 112 28 202 l1 111 41 26 c116 73 213 73 331
-2 l43 -27 0 -66 c0 -131 34 -256 111 -413 27 -54 68 -122 90 -150 81 -102
204 -185 346 -230 207 -68 459 -41 625 65 141 91 244 276 293 524 21 109 17
269 -10 329 -60 138 -138 171 -471 196 -129 9 -452 11 -534 3z m654 -254 c48
-24 109 -80 138 -127 18 -30 48 -121 48 -149 0 -31 -18 -8 -34 42 -36 114
-150 220 -271 251 l-30 8 25 6 c30 8 68 -2 124 -31z m-2373 -5 c67 -20 90 -38
34 -27 -43 8 -121 9 -170 2 -16 -2 -57 -22 -89 -44 -52 -35 -73 -59 -133 -151
-11 -16 -11 -15 -3 9 5 15 7 27 5 27 -3 0 3 17 14 38 35 69 118 136 181 147
19 3 36 8 39 11 9 9 70 3 122 -12z"/>
</g>
</svg>
