<?xml version="1.0" encoding="UTF-8"?>
<svg version="1.1" xmlns="http://www.w3.org/2000/svg" width="380" height="380">
<path d="M0 0 C0.99 0.61875 1.98 1.2375 3 1.875 C6.03117672 4.02208351 8.5246661 6.23345035 11 9 C11 9.66 11 10.32 11 11 C11.66 11 12.32 11 13 11 C13.88171875 12.22396484 13.88171875 12.22396484 14.78125 13.47265625 C16.7376788 16.2038781 16.7376788 16.2038781 19.53125 16.55859375 C20.5109375 16.51863281 21.490625 16.47867188 22.5 16.4375 C23.64984375 16.39367187 24.7996875 16.34984375 25.984375 16.3046875 C31.43959354 15.9268488 36.8802665 15.37262341 42.31640625 14.78515625 C48.74543503 14.09249913 55.16079068 13.63287435 61.62011719 13.34204102 C65.30704517 13.17440362 65.30704517 13.17440362 68.92553711 12.50439453 C71.18510465 11.9549928 73.27560819 11.79150222 75.59765625 11.68359375 C76.91600464 11.62075195 76.91600464 11.62075195 78.26098633 11.55664062 C79.18548584 11.51732422 80.10998535 11.47800781 81.0625 11.4375 C82.00826904 11.39431641 82.95403809 11.35113281 83.9284668 11.30664062 C89.4743681 11.06611621 94.99949482 10.90749026 100.55078125 11.0625 C103.16830791 11.04430313 103.16830791 11.04430313 106.39941406 10.50439453 C111.94497581 9.79841848 117.47608436 9.85681823 123.05859375 9.8671875 C124.77418236 9.86575241 124.77418236 9.86575241 126.52442932 9.86428833 C128.93401139 9.86361032 131.34359531 9.86543805 133.75317383 9.86962891 C137.42207992 9.87497752 141.09086333 9.86967349 144.75976562 9.86328125 C147.10937527 9.8639422 149.45898483 9.8652237 151.80859375 9.8671875 C153.4402372 9.86415115 153.4402372 9.86415115 155.10484314 9.86105347 C160.49241319 9.87746803 165.74513206 10.067289 171.08753967 10.78591919 C173.6612729 11.07402289 176.21848132 11.0081532 178.8046875 10.97265625 C182.39855076 11.01741967 185.96084243 11.39487697 189.5390625 11.71484375 C193.46121365 12.03800067 197.383619 12.27698434 201.3125 12.5 C202.03751709 12.54189453 202.76253418 12.58378906 203.50952148 12.62695312 C206.94761114 12.82557624 210.38581701 13.02167511 213.82421875 13.21484375 C220.51659158 13.62022659 227.15732318 14.20287202 233.8125 15 C234.53083008 15.08451416 235.24916016 15.16902832 235.98925781 15.25610352 C239.04250274 15.62061203 242.08353247 16.01317283 245.12109375 16.4921875 C250.15022426 17.25433204 250.15022426 17.25433204 254.8125 15.5 C256.98130287 13.02136815 258.82108639 10.46475841 260.67578125 7.75 C262.80023207 4.94246618 265.13847835 3.05283075 268 1 C268.99 1 269.98 1 271 1 C271 0.34 271 -0.32 271 -1 C282.46421286 -5.27508699 294.43064225 -4.860884 305.62109375 -0.1796875 C308.9761106 1.48404828 311.35253719 3.35253719 314 6 C314 6.66 314 7.32 314 8 C314.66 8 315.32 8 316 8 C321.52426993 18.79743667 324.14825402 29.81774854 321.31640625 41.921875 C319.26666054 47.39920379 316.26498897 52.9283572 312 57 C311.01 57 310.02 57 309 57 C309 57.66 309 58.32 309 59 C307.77410156 59.84498047 307.77410156 59.84498047 306.5234375 60.70703125 C303.70127382 62.79591872 303.70127382 62.79591872 303.4765625 66.13671875 C303.52554687 67.30847656 303.57453125 68.48023437 303.625 69.6875 C303.68880859 71.56308594 303.68880859 71.56308594 303.75390625 73.4765625 C303.99274867 76.89617933 304.37816983 80.25252693 304.85546875 83.64453125 C305.10954252 87.78524708 304.48644126 91.8794966 303.9609375 95.984375 C304.00767027 99.592145 305.07913084 101.00570396 307 104 C314.47683676 134.24338464 311.7617727 172.37864956 308 203 C307.83004347 204.4908074 307.66075154 205.98169076 307.4921875 207.47265625 C306.77276868 213.6478457 305.89397542 219.79480231 304.9375 225.9375 C304.62487409 227.95831386 304.31236326 229.97914553 304 232 C303.86207031 232.8559375 303.72414063 233.711875 303.58203125 234.59375 C302.92126 239.25801766 302.60330816 242.75969905 305 247 C307.2870965 248.9406932 309.62831815 250.68977665 312.1015625 252.38671875 C312.72804688 252.91910156 313.35453125 253.45148438 314 254 C314 254.99 314 255.98 314 257 C314.99 257.33 315.98 257.66 317 258 C320.39975835 263.90854555 321.71502592 270.26748737 322 277 C322.07734375 278.11181641 322.07734375 278.11181641 322.15625 279.24609375 C322.396711 285.02717687 321.07602558 289.6432086 319 295 C318.67 295.99 318.34 296.98 318 298 C317.34 298.33 316.68 298.66 316 299 C314.86649466 301.01669827 314.86649466 301.01669827 314 303 C313.34 303 312.68 303 312 303 C311.34 303.99 310.68 304.98 310 306 C309.34 306 308.68 306 308 306 C308 306.66 308 307.32 308 308 C302.31635601 310.82866541 297.35836775 312.71529697 291 313 C289.80890625 313.07734375 289.80890625 313.07734375 288.59375 313.15625 C276.21086763 313.61487527 267.02484268 307.97544237 258 300 C257.4225 299.401875 256.845 298.80375 256.25 298.1875 C255.04569007 296.77041685 255.04569007 296.77041685 253 297 C253 296.34 253 295.68 253 295 C241.77184057 293.1286401 230.31302112 293.40097572 219.16015625 295.5625 C216.61656434 295.91464128 214.40290336 296.03197856 211.85546875 296 C205.27988003 295.92290737 198.77328302 296.66227598 192.234375 297.2890625 C185.87265215 297.86292925 179.61010018 298.05720613 173.22363281 298.00390625 C168.05827942 297.99764711 162.90885069 298.26270976 157.75 298.5 C141.70063142 299.1701344 125.52960939 299.77941631 109.51953125 298.21484375 C104.55136277 297.91157042 99.60044755 298.01310229 94.625 298.0625 C83.55331876 298.14383943 72.68544967 297.42849871 61.67919922 296.2734375 C59.09117063 296.00930482 56.50237351 295.78117562 53.91015625 295.5625 C46.46290198 294.89399203 40.02766228 293.9146841 33.16015625 290.76953125 C27.87286492 288.88599347 22.6767625 290.50387177 17.6875 292.625 C13.47933747 294.89287202 11.97206913 297.72718355 10 302 C9.34 302 8.68 302 8 302 C8 302.66 8 303.32 8 304 C7.34 304 6.68 304 6 304 C6 304.66 6 305.32 6 306 C5.01 306 4.02 306 3 306 C3 306.66 3 307.32 3 308 C-3.03072769 311.06526348 -8.24151787 312.69906573 -15 313 C-16.093125 313.0825 -17.18625 313.165 -18.3125 313.25 C-24.82949851 312.80816959 -32.51347972 312.13713349 -37 307 C-38.2065625 306.319375 -38.2065625 306.319375 -39.4375 305.625 C-45.1296634 302.01533541 -48.99512667 295.4513397 -50.47265625 288.90625 C-50.76953169 286.59814796 -50.90434718 284.32509943 -51 282 C-51.07476562 281.0821875 -51.14953125 280.164375 -51.2265625 279.21875 C-51.66052267 270.53954664 -49.73907364 262.24744994 -44.625 255.0703125 C-43.3125 253.6875 -43.3125 253.6875 -41 252 C-40.34 252 -39.68 252 -39 252 C-38.505 251.01 -38.505 251.01 -38 250 C-37.175 249.113125 -36.35 248.22625 -35.5 247.3125 C-32.72264512 243.99577476 -32.07690401 241.38352849 -32 237 C-32.59861742 234.64828869 -33.26924352 232.3140622 -34 230 C-34.37297993 227.33219697 -34.70795194 224.67661458 -35 222 C-35.07702148 221.29560791 -35.15404297 220.59121582 -35.23339844 219.86547852 C-36.61559755 206.85851832 -37.78164755 193.8295359 -38.78417969 180.78808594 C-38.91760959 179.06436485 -39.05539228 177.34096701 -39.20019531 175.61816406 C-41.14152682 152.18722707 -39.48835561 128.57941022 -37.0625 105.25 C-36.97723053 104.42947144 -36.89196106 103.60894287 -36.80410767 102.7635498 C-35.99355575 95.0744663 -35.10538814 87.42076714 -33.87890625 79.78515625 C-33.19839567 75.54307309 -32.77117401 71.49627874 -32.875 67.1875 C-32.90207031 65.69283203 -32.90207031 65.69283203 -32.9296875 64.16796875 C-32.95289062 63.45253906 -32.97609375 62.73710938 -33 62 C-33.57234375 61.74089844 -34.1446875 61.48179688 -34.734375 61.21484375 C-37.19615803 59.89481871 -39.13473435 58.38397875 -41.25 56.5625 C-41.95640625 55.96566406 -42.6628125 55.36882812 -43.390625 54.75390625 C-45 53 -45 53 -45 50 C-45.66 50 -46.32 50 -47 50 C-51.7678773 41.50074046 -53.03743474 29.49797894 -50.45507812 19.99462891 C-46.42187252 8.44058026 -46.42187252 8.44058026 -42 5 C-41.34 5 -40.68 5 -40 5 C-40 4.34 -40 3.68 -40 3 C-39.01 2.67 -38.02 2.34 -37 2 C-36.67 1.34 -36.34 0.68 -36 0 C-25.37042696 -5.11037165 -10.13794488 -7.01857723 0 0 Z " fill="#86CCD7" transform="translate(55,37)"/>
<path d="M0 0 C0.99 0.61875 1.98 1.2375 3 1.875 C6.03117672 4.02208351 8.5246661 6.23345035 11 9 C11 9.66 11 10.32 11 11 C11.66 11 12.32 11 13 11 C13.88171875 12.22396484 13.88171875 12.22396484 14.78125 13.47265625 C16.7376788 16.2038781 16.7376788 16.2038781 19.53125 16.55859375 C20.5109375 16.51863281 21.490625 16.47867188 22.5 16.4375 C23.64984375 16.39367187 24.7996875 16.34984375 25.984375 16.3046875 C31.43959354 15.9268488 36.8802665 15.37262341 42.31640625 14.78515625 C48.74543503 14.09249913 55.16079068 13.63287435 61.62011719 13.34204102 C65.30704517 13.17440362 65.30704517 13.17440362 68.92553711 12.50439453 C71.18510465 11.9549928 73.27560819 11.79150222 75.59765625 11.68359375 C76.91600464 11.62075195 76.91600464 11.62075195 78.26098633 11.55664062 C79.18548584 11.51732422 80.10998535 11.47800781 81.0625 11.4375 C82.00826904 11.39431641 82.95403809 11.35113281 83.9284668 11.30664062 C89.4743681 11.06611621 94.99949482 10.90749026 100.55078125 11.0625 C103.16830791 11.04430313 103.16830791 11.04430313 106.39941406 10.50439453 C111.94497581 9.79841848 117.47608436 9.85681823 123.05859375 9.8671875 C124.77418236 9.86575241 124.77418236 9.86575241 126.52442932 9.86428833 C128.93401139 9.86361032 131.34359531 9.86543805 133.75317383 9.86962891 C137.42207992 9.87497752 141.09086333 9.86967349 144.75976562 9.86328125 C147.10937527 9.8639422 149.45898483 9.8652237 151.80859375 9.8671875 C153.4402372 9.86415115 153.4402372 9.86415115 155.10484314 9.86105347 C160.49241319 9.87746803 165.74513206 10.067289 171.08753967 10.78591919 C173.6612729 11.07402289 176.21848132 11.0081532 178.8046875 10.97265625 C182.39855076 11.01741967 185.96084243 11.39487697 189.5390625 11.71484375 C193.46121365 12.03800067 197.383619 12.27698434 201.3125 12.5 C202.03751709 12.54189453 202.76253418 12.58378906 203.50952148 12.62695312 C206.94761114 12.82557624 210.38581701 13.02167511 213.82421875 13.21484375 C220.51659158 13.62022659 227.15732318 14.20287202 233.8125 15 C234.53083008 15.08451416 235.24916016 15.16902832 235.98925781 15.25610352 C239.04250274 15.62061203 242.08353247 16.01317283 245.12109375 16.4921875 C250.15022426 17.25433204 250.15022426 17.25433204 254.8125 15.5 C256.98130287 13.02136815 258.82108639 10.46475841 260.67578125 7.75 C262.80023207 4.94246618 265.13847835 3.05283075 268 1 C268.99 1 269.98 1 271 1 C271 0.34 271 -0.32 271 -1 C282.46421286 -5.27508699 294.43064225 -4.860884 305.62109375 -0.1796875 C308.9761106 1.48404828 311.35253719 3.35253719 314 6 C314 6.66 314 7.32 314 8 C314.66 8 315.32 8 316 8 C321.52426993 18.79743667 324.14825402 29.81774854 321.31640625 41.921875 C319.26666054 47.39920379 316.26498897 52.9283572 312 57 C311.01 57 310.02 57 309 57 C309 57.66 309 58.32 309 59 C307.77410156 59.84498047 307.77410156 59.84498047 306.5234375 60.70703125 C303.70127382 62.79591872 303.70127382 62.79591872 303.4765625 66.13671875 C303.52554687 67.30847656 303.57453125 68.48023437 303.625 69.6875 C303.68880859 71.56308594 303.68880859 71.56308594 303.75390625 73.4765625 C303.99274867 76.89617933 304.37816983 80.25252693 304.85546875 83.64453125 C305.10954252 87.78524708 304.48644126 91.8794966 303.9609375 95.984375 C304.00767027 99.592145 305.07913084 101.00570396 307 104 C314.47683676 134.24338464 311.7617727 172.37864956 308 203 C307.83004347 204.4908074 307.66075154 205.98169076 307.4921875 207.47265625 C306.77276868 213.6478457 305.89397542 219.79480231 304.9375 225.9375 C304.62487409 227.95831386 304.31236326 229.97914553 304 232 C303.86207031 232.8559375 303.72414063 233.711875 303.58203125 234.59375 C302.92126 239.25801766 302.60330816 242.75969905 305 247 C307.2870965 248.9406932 309.62831815 250.68977665 312.1015625 252.38671875 C312.72804688 252.91910156 313.35453125 253.45148438 314 254 C314 254.99 314 255.98 314 257 C314.99 257.33 315.98 257.66 317 258 C320.39975835 263.90854555 321.71502592 270.26748737 322 277 C322.07734375 278.11181641 322.07734375 278.11181641 322.15625 279.24609375 C322.396711 285.02717687 321.07602558 289.6432086 319 295 C318.67 295.99 318.34 296.98 318 298 C317.34 298.33 316.68 298.66 316 299 C314.86649466 301.01669827 314.86649466 301.01669827 314 303 C313.34 303 312.68 303 312 303 C311.34 303.99 310.68 304.98 310 306 C309.34 306 308.68 306 308 306 C308 306.66 308 307.32 308 308 C302.31635601 310.82866541 297.35836775 312.71529697 291 313 C289.80890625 313.07734375 289.80890625 313.07734375 288.59375 313.15625 C276.21086763 313.61487527 267.02484268 307.97544237 258 300 C257.4225 299.401875 256.845 298.80375 256.25 298.1875 C255.04569007 296.77041685 255.04569007 296.77041685 253 297 C253 296.34 253 295.68 253 295 C241.77184057 293.1286401 230.31302112 293.40097572 219.16015625 295.5625 C216.61656434 295.91464128 214.40290336 296.03197856 211.85546875 296 C205.27988003 295.92290737 198.77328302 296.66227598 192.234375 297.2890625 C185.87265215 297.86292925 179.61010018 298.05720613 173.22363281 298.00390625 C168.05827942 297.99764711 162.90885069 298.26270976 157.75 298.5 C141.70063142 299.1701344 125.52960939 299.77941631 109.51953125 298.21484375 C104.55136277 297.91157042 99.60044755 298.01310229 94.625 298.0625 C83.55331876 298.14383943 72.68544967 297.42849871 61.67919922 296.2734375 C59.09117063 296.00930482 56.50237351 295.78117562 53.91015625 295.5625 C46.46290198 294.89399203 40.02766228 293.9146841 33.16015625 290.76953125 C27.87286492 288.88599347 22.6767625 290.50387177 17.6875 292.625 C13.47933747 294.89287202 11.97206913 297.72718355 10 302 C9.34 302 8.68 302 8 302 C8 302.66 8 303.32 8 304 C7.34 304 6.68 304 6 304 C6 304.66 6 305.32 6 306 C5.01 306 4.02 306 3 306 C3 306.66 3 307.32 3 308 C-3.03072769 311.06526348 -8.24151787 312.69906573 -15 313 C-16.093125 313.0825 -17.18625 313.165 -18.3125 313.25 C-24.82949851 312.80816959 -32.51347972 312.13713349 -37 307 C-38.2065625 306.319375 -38.2065625 306.319375 -39.4375 305.625 C-45.1296634 302.01533541 -48.99512667 295.4513397 -50.47265625 288.90625 C-50.76953169 286.59814796 -50.90434718 284.32509943 -51 282 C-51.07476562 281.0821875 -51.14953125 280.164375 -51.2265625 279.21875 C-51.66052267 270.53954664 -49.73907364 262.24744994 -44.625 255.0703125 C-43.3125 253.6875 -43.3125 253.6875 -41 252 C-40.34 252 -39.68 252 -39 252 C-38.505 251.01 -38.505 251.01 -38 250 C-37.175 249.113125 -36.35 248.22625 -35.5 247.3125 C-32.72264512 243.99577476 -32.07690401 241.38352849 -32 237 C-32.59861742 234.64828869 -33.26924352 232.3140622 -34 230 C-34.37297993 227.33219697 -34.70795194 224.67661458 -35 222 C-35.07702148 221.29560791 -35.15404297 220.59121582 -35.23339844 219.86547852 C-36.61559755 206.85851832 -37.78164755 193.8295359 -38.78417969 180.78808594 C-38.91760959 179.06436485 -39.05539228 177.34096701 -39.20019531 175.61816406 C-41.14152682 152.18722707 -39.48835561 128.57941022 -37.0625 105.25 C-36.97723053 104.42947144 -36.89196106 103.60894287 -36.80410767 102.7635498 C-35.99355575 95.0744663 -35.10538814 87.42076714 -33.87890625 79.78515625 C-33.19839567 75.54307309 -32.77117401 71.49627874 -32.875 67.1875 C-32.90207031 65.69283203 -32.90207031 65.69283203 -32.9296875 64.16796875 C-32.95289062 63.45253906 -32.97609375 62.73710938 -33 62 C-33.57234375 61.74089844 -34.1446875 61.48179688 -34.734375 61.21484375 C-37.19615803 59.89481871 -39.13473435 58.38397875 -41.25 56.5625 C-41.95640625 55.96566406 -42.6628125 55.36882812 -43.390625 54.75390625 C-45 53 -45 53 -45 50 C-45.66 50 -46.32 50 -47 50 C-51.7678773 41.50074046 -53.03743474 29.49797894 -50.45507812 19.99462891 C-46.42187252 8.44058026 -46.42187252 8.44058026 -42 5 C-41.34 5 -40.68 5 -40 5 C-40 4.34 -40 3.68 -40 3 C-39.01 2.67 -38.02 2.34 -37 2 C-36.67 1.34 -36.34 0.68 -36 0 C-25.37042696 -5.11037165 -10.13794488 -7.01857723 0 0 Z M-29 14 C-31.5145566 18.27562237 -31.8959424 22.14431219 -31 27 C-28.2370739 32.59695691 -23.83139866 36.09996659 -18.828125 39.6328125 C-14.87272316 42.59091217 -12.26655425 46.25042158 -11 51 C-10.59966399 57.07925581 -11.14201732 62.86564898 -12.25239563 68.84039307 C-16.92185659 94.13921122 -18.4844201 118.99642734 -18.3225708 144.64337158 C-18.30901458 147.56321798 -18.31434332 150.48291225 -18.31969929 153.40277576 C-18.32307408 156.27625551 -18.31634842 159.14964505 -18.30657005 162.02310753 C-18.30100982 164.00073376 -18.30213319 165.97837536 -18.30354309 167.95600891 C-18.24420453 175.61212466 -17.62396242 182.96806885 -16.5032196 190.52604675 C-15.98174936 194.12599248 -15.58405939 197.72488837 -15.21875 201.34375 C-15.09886719 202.52710938 -14.97898437 203.71046875 -14.85546875 204.9296875 C-14.6154086 207.34084107 -14.37850715 209.75231092 -14.14453125 212.1640625 C-13.54539114 218.0266163 -12.74781955 223.38200858 -11 229 C-10.07487796 236.54082038 -10.9383907 243.4863021 -15 250 C-17.76943141 252.99160594 -20.77338927 255.5166621 -24 258 C-29.09846819 261.7610393 -29.09846819 261.7610393 -31.40625 267.453125 C-31.57924801 272.61423223 -31.56767793 276.07775424 -28.125 280.125 C-24.72435473 283.55850175 -22.5101062 284.17168975 -17.6875 284.25 C-16.74261719 284.27578125 -15.79773437 284.3015625 -14.82421875 284.328125 C-10.2123127 283.79230189 -7.82344249 282.02150536 -4.9375 278.44140625 C-4.298125 277.49136719 -3.65875 276.54132813 -3 275.5625 C1.47696935 268.92828131 6.23010938 264.95675554 14 263 C18.33660627 262.49664391 21.25119204 262.50079469 25 265 C25.33 266.32 25.66 267.64 26 269 C29.63 269.33 33.26 269.66 37 270 C37.66 268.68 38.32 267.36 39 266 C48.52783479 266.45085875 58.04043843 266.96542046 67.546875 267.75390625 C149.45759934 276.05305809 149.45759934 276.05305809 230 265 C246.36369699 263.54164962 259.6835317 265.92889741 273 276 C274.98515411 277.80306264 276.84826173 279.64138077 278.66015625 281.6171875 C281.26656727 284.30718604 283.64198039 284.21884922 287.25 284.3125 C292.31866621 284.25942496 295.17302107 283.53995551 299 280 C302.07033146 276.41794663 302.70754156 272.94613721 302.5390625 268.3359375 C301.13134784 262.23584064 295.71115254 258.40975627 290.8125 255 C285.71192641 251.39203612 283.92371415 246.77114244 282 241 C281.57336397 235.30490506 281.94530075 229.75696656 282.8828125 224.1328125 C284.01220123 217.05718455 284.93891184 209.96543823 285.80493164 202.85400391 C286.06063232 200.7652566 286.32416232 198.67759058 286.58789062 196.58984375 C288.58002902 180.51859143 289.16793019 164.56541278 289.13037109 148.37744141 C289.12496496 145.60704178 289.13037917 142.8368013 289.13671875 140.06640625 C289.13961839 132.0903315 289.10822893 124.19768082 288.24023438 116.25927734 C287.85905984 112.67453228 287.74047878 109.10255688 287.6875 105.5 C287.64399414 104.46746094 287.64399414 104.46746094 287.59960938 103.4140625 C287.57421875 101.40625 287.57421875 101.40625 288 98 C290.015625 96.3125 290.015625 96.3125 292 95 C292.4542574 92.81661303 292.4542574 92.81661303 292.0625 90.5 C291.99160156 89.7265625 291.92070312 88.953125 291.84765625 88.15625 C291.16076761 85.75317525 291.16076761 85.75317525 288.54296875 84.57421875 C286 83 286 83 284.890625 80.36328125 C284.67921875 79.35652344 284.4678125 78.34976563 284.25 77.3125 C284.02183594 76.23613281 283.79367187 75.15976563 283.55859375 74.05078125 C283.37425781 73.04402344 283.18992187 72.03726563 283 71 C282.86722656 70.29230469 282.73445313 69.58460937 282.59765625 68.85546875 C282.29701851 66.89926429 282.12754889 64.97518571 282 63 C281.88591797 61.61167969 281.88591797 61.61167969 281.76953125 60.1953125 C281.41949878 52.7594876 282.27384649 46.93200337 287 41 C290.00044646 38.46862603 292.98912306 36.27780225 296.2578125 34.10546875 C299.69810394 31.46399142 301.49332062 29.04507548 302.5390625 24.82421875 C302.73870689 19.86033324 301.90351903 17.30444812 298.625 13.5 C295.02416828 9.76580414 292.94533709 8.80953383 287.75 8.625 C283.44488907 8.69777821 280.64260456 8.99799292 277.4375 12.17578125 C275.58579567 14.5256343 273.97654389 17.01399895 272.3125 19.5 C268.22424447 25.25931055 263.94629288 28.46486079 257 30 C248.79807105 30.637859 240.74617154 29.46759621 232.63400269 28.34732056 C221.07771354 26.75839251 209.60246898 25.52396861 197.93359375 25.17578125 C194 25 194 25 190.73925781 24.52368164 C174.72747438 22.28123743 158.31071238 22.83749528 142.1875 22.875 C140.96468323 22.87688324 139.74186646 22.87876648 138.48199463 22.88070679 C102.47702365 22.94578275 66.60163399 24.22918432 30.88574219 29.08544922 C12.33608726 31.54706178 12.33608726 31.54706178 4 26 C0.35195702 22.61150158 -2.44283499 18.86852193 -5.125 14.6875 C-7.30560092 11.56197201 -8.43203979 10.36645285 -12 9 C-19.36822272 7.9860244 -23.97912684 8.33542515 -29 14 Z " fill="#020303" transform="translate(55,37)"/>
<path d="M0 0 C5.57199962 2.35738445 8.01852008 6.72667612 11.27734375 11.58984375 C14.84091955 16.5756176 18.90357515 19.71037167 25 21 C32.61074998 21.44218178 40.03239456 20.50886144 47.5625 19.5 C54.7715928 18.53763163 61.72155848 17.81670242 69 18 C67.51357299 21.07347245 65.82905406 23.60130112 63.75 26.3125 C39.9594539 59.99516506 40.67189611 116.47644291 47.22436523 155.44262695 C48.79921538 163.80238322 50.85664975 172.01322428 53.41943359 180.12304688 C53.9620487 181.87730463 54.44622573 183.64934068 54.92578125 185.421875 C57.27314017 193.90132133 60.93701666 201.43576568 65.0390625 209.17529297 C65.88083183 210.77371369 66.69293927 212.38768307 67.5 214.00390625 C76.26538152 231.1113412 89.6007077 244.77061349 105.75 254.94140625 C108.27492145 256.54072548 110.62943701 258.19083528 113 260 C103.93673331 260.142554 94.97652567 259.69675872 85.9375 259.0625 C83.20585992 258.87694539 80.47402771 258.69430027 77.7421875 258.51171875 C76.74316154 258.44443573 76.74316154 258.44443573 75.72395325 258.37579346 C67.4874319 257.82469382 59.24506578 257.3991242 51 257 C50.34 258.32 49.68 259.64 49 261 C45.37 260.67 41.74 260.34 38 260 C37.34 258.35 36.68 256.7 36 255 C32.02567089 253.01283544 27.72698476 253.59557952 23.53125 254.578125 C15.55720511 257.28536246 10.67024119 262.53436437 6.40234375 269.671875 C4.54456083 272.75610514 3.37356724 273.66462963 0 275 C-5.14588825 275.6354862 -9.44824997 275.90518752 -14 273.25 C-18.47683782 268.21355746 -19.6234169 265.49720523 -19.40625 258.68359375 C-18.51857027 252.81978628 -14.38392195 250.22868335 -9.9375 246.9375 C-8.90882812 246.18919922 -8.90882812 246.18919922 -7.859375 245.42578125 C-2.96448908 241.67234982 -0.39630436 236.90899815 1 231 C1.70532431 224.9761491 0.98053814 219.50899714 -0.421875 213.63671875 C-2.15776252 205.77410867 -2.94959854 197.93966414 -3.625 189.9375 C-3.80597325 187.87154998 -3.98944108 185.80585829 -4.17562866 183.7403717 C-4.34137152 181.8910523 -4.50025656 180.04112194 -4.65869141 178.19116211 C-4.92726936 175.12858999 -4.92726936 175.12858999 -5.51026917 172.6789856 C-6.05111725 169.72037214 -6.14887972 166.95262222 -6.17700195 163.94506836 C-6.18966095 162.73907486 -6.20231995 161.53308136 -6.21536255 160.2905426 C-6.22292572 158.98681198 -6.23048889 157.68308136 -6.23828125 156.33984375 C-6.24308376 155.6661569 -6.24788628 154.99247005 -6.25283432 154.29836845 C-6.28896881 149.17808696 -6.30437064 144.05789493 -6.3125 138.9375 C-6.31409245 138.18901039 -6.31568489 137.44052078 -6.31732559 136.66934967 C-6.3499349 118.68829517 -6.38209144 100.7514952 -4.1875 82.875 C-4.06334213 81.86069412 -4.06334213 81.86069412 -3.93667603 80.82589722 C-2.85631361 72.32350174 -1.27845573 63.91921119 0.37792969 55.51416016 C1.6373502 48.39952167 2.05490157 42.31312732 -1.59765625 35.87890625 C-4.92315179 31.42329801 -9.41173106 28.20002542 -13.8125 24.875 C-16.91332365 22.21715115 -18.69438065 20.01261525 -19.3203125 15.890625 C-19.59523842 10.42876332 -18.65434755 7.26340548 -15 3 C-10.45531898 -1.12169123 -5.85010531 -0.72486728 0 0 Z " fill="#59ADB4" transform="translate(43,46)"/>
<path d="M0 0 C4.54942248 1.59630735 8.78370387 3.66630114 13 6 C13.85207031 6.43828125 14.70414063 6.8765625 15.58203125 7.328125 C29.17327295 14.77655352 39.30026595 26.26820118 45.046875 40.61328125 C48.17068177 51.71303727 46.92035919 63.64883557 41.8515625 73.89453125 C34.45254953 86.3042682 34.45254953 86.3042682 28 89 C28 89.66 28 90.32 28 91 C25.84094462 92.551166 23.69269592 93.97664144 21.4375 95.375 C20.82841797 95.76171875 20.21933594 96.1484375 19.59179688 96.546875 C17.73834054 97.71582735 15.87137752 98.86000218 14 100 C13.42902588 100.35916504 12.85805176 100.71833008 12.26977539 101.08837891 C7.88144941 103.75287656 3.49989794 105.27399282 -1.4375 106.625 C-2.14970703 106.82867187 -2.86191406 107.03234375 -3.59570312 107.2421875 C-5.72607566 107.8458898 -7.86090276 108.42803043 -10 109 C-10.7022168 109.18836426 -11.40443359 109.37672852 -12.12792969 109.57080078 C-17.77212842 111.0383989 -23.19660238 111.66146847 -29 112 C-29.9075 112.05414063 -30.815 112.10828125 -31.75 112.1640625 C-36.62776944 112.32375138 -40.14674734 112.37159608 -44 109 C-46.0519987 105.48335006 -46.76402361 102.50655256 -46.73046875 98.453125 C-45.40976426 94.01781795 -41.79813396 91.6491448 -38.28515625 88.84765625 C-35.92923497 87.20375355 -35.92923497 87.20375355 -35 85 C-34.34 85 -33.68 85 -33 85 C-32.63068359 84.24203125 -32.63068359 84.24203125 -32.25390625 83.46875 C-31.22826055 81.44941018 -30.17172748 79.45803693 -29.08984375 77.46875 C-28.73986328 76.82292969 -28.38988281 76.17710937 -28.02929688 75.51171875 C-27.30054168 74.16893189 -26.56875978 72.82778332 -25.83398438 71.48828125 C-20.93896547 62.42209097 -20.59717632 51.87045571 -22.6484375 41.82421875 C-23.57955816 39.0746274 -24.6718964 36.58065639 -26 34 C-26.45117188 33.11183594 -26.90234375 32.22367188 -27.3671875 31.30859375 C-30.77125218 25.35571446 -34.7792348 21.31370112 -39.9375 16.9375 C-45.64096067 12.03116095 -45.64096067 12.03116095 -46.9765625 8.1953125 C-47.11537922 3.94247311 -46.35180724 1.5746185 -44.125 -2.0625 C-34.33472065 -10.98893118 -11.07918595 -3.39755792 0 0 Z " fill="#5BB0B7" transform="translate(224,125)"/>
<path d="M0 0 C3.11173119 1.08910592 3.76309718 2.10444246 5.5 4.875 C6.41967773 7.59448242 6.41967773 7.59448242 7.18359375 10.73046875 C7.46952393 11.89787598 7.7554541 13.0652832 8.05004883 14.26806641 C8.34290771 15.52022949 8.6357666 16.77239258 8.9375 18.0625 C9.08996185 18.70515808 9.24242371 19.34781616 9.39950562 20.00994873 C12.43747089 32.85307862 14.84211779 45.77925155 16.5 58.875 C16.58580322 59.54660156 16.67160645 60.21820313 16.76000977 60.91015625 C18.33191858 73.49658493 18.90168918 85.94594496 18.875 98.625 C18.87478851 99.56411224 18.87457703 100.50322449 18.87435913 101.47079468 C18.81290532 129.17597882 16.61823699 157.02224776 9.5 183.875 C9.27634766 184.74495605 9.05269531 185.61491211 8.82226562 186.51123047 C5.08259804 201.00110294 5.08259804 201.00110294 2.5 204.875 C-0.5 205.1875 -0.5 205.1875 -3.5 204.875 C-5.5 202.875 -5.5 202.875 -5.75390625 199.75390625 C-5.43186427 194.83409573 -4.21127359 190.45935659 -2.83398438 185.74804688 C-0.64685023 177.75925164 -2.97029339 172.1791494 -5.9375 164.8125 C-6.25009766 164.02294922 -6.56269531 163.23339844 -6.88476562 162.41992188 C-8.08297897 159.3977897 -9.28231602 156.38133452 -10.56640625 153.39453125 C-20.18202513 127.44443009 -21.7256468 96.7223492 -15.5 69.875 C-15.32307617 69.1010791 -15.14615234 68.3271582 -14.96386719 67.52978516 C-12.10290589 55.30275798 -8.66831849 42.82568156 -2.8125 31.65625 C-0.26127788 26.25008884 -2.4846644 20.83325426 -4.0625 15.375 C-5.39864159 10.64255761 -6.03489779 6.77822975 -5.5 1.875 C-2.5 -0.125 -2.5 -0.125 0 0 Z " fill="#050707" transform="translate(63.5,79.125)"/>
<path d="M0 0 C7.65520122 14.8000557 5.37261749 35.55240925 5.37060547 51.69482422 C5.37496956 55.597778 5.4113947 59.49958926 5.44921875 63.40234375 C5.51919915 79.63856503 4.1738827 95.07159737 1 111 C-3.34558975 106.65441025 -4.41727901 98.83233281 -6 93 C-6.2047998 92.2481543 -6.40959961 91.49630859 -6.62060547 90.72167969 C-14.3483683 60.9155016 -11.29658567 28.39208531 0 0 Z " fill="#DFDFDF" transform="translate(66,126)"/>
<path d="M0 0 C0.66 0.66 1.32 1.32 2 2 C1.9765625 4.7734375 1.9765625 4.7734375 1.625 8.375 C0.59679256 20.49016137 0.28405003 32.88343452 1.7734375 44.96875 C2.37900863 50.39800844 2.07204835 55.63975826 1 61 C0.67 61 0.34 61 0 61 C-0.06058594 60.01902344 -0.12117188 59.03804687 -0.18359375 58.02734375 C-0.22371582 57.3837793 -0.26383789 56.74021484 -0.30517578 56.07714844 C-0.39507659 54.6234756 -0.48323087 53.16969392 -0.56982422 51.71582031 C-0.77475099 48.33051752 -1.0039012 44.95887286 -1.32421875 41.58203125 C-2.12166253 32.74801121 -1.9319001 24.04631082 -1.625 15.1875 C-1.58197754 13.92776367 -1.53895508 12.66802734 -1.49462891 11.37011719 C-1.13029778 2.26059556 -1.13029778 2.26059556 0 0 Z " fill="#101010" transform="translate(17,166)"/>
<path d="M0 0 C1.03382812 -0.01417969 2.06765625 -0.02835938 3.1328125 -0.04296875 C5.875 0.1875 5.875 0.1875 8.875 2.1875 C7.77800781 2.23648438 6.68101563 2.28546875 5.55078125 2.3359375 C4.09633075 2.41100591 2.64190484 2.48655197 1.1875 2.5625 C0.1056543 2.60890625 0.1056543 2.60890625 -0.99804688 2.65625 C-6.66543582 2.96679186 -10.48580469 4.07284719 -15.25 7.3125 C-18.125 9.1875 -18.125 9.1875 -21.125 9.1875 C-21.16625 9.744375 -21.2075 10.30125 -21.25 10.875 C-22.59430374 14.42780274 -25.13474189 15.89708953 -28.125 18.1875 C-28.455 17.5275 -28.785 16.8675 -29.125 16.1875 C-25.5 10.3125 -25.5 10.3125 -22.125 9.1875 C-22.125 8.5275 -22.125 7.8675 -22.125 7.1875 C-21.135 6.8575 -20.145 6.5275 -19.125 6.1875 C-18.795 5.5275 -18.465 4.8675 -18.125 4.1875 C-12.03028495 1.25734853 -6.80596428 0.04264389 0 0 Z " fill="#0F0F0F" transform="translate(37.125,32.8125)"/>
<path d="M0 0 C0.99 0.33 1.98 0.66 3 1 C-0.33333333 4.33333333 -3.66666667 7.66666667 -7 11 C-7.804375 12.010625 -8.60875 13.02125 -9.4375 14.0625 C-12 17 -12 17 -15 18 C-15 15 -15 15 -12.75 12.625 C-11.8425 11.75875 -10.935 10.8925 -10 10 C-9.0409375 8.7625 -9.0409375 8.7625 -8.0625 7.5 C-5.57230552 4.48158245 -3.17585367 2.29742606 0 0 Z " fill="#0F0F0F" transform="translate(323,38)"/>
<path d="M0 0 C2.55836705 4.51354187 2.66186275 8.9118394 3 14 C3.0825 15.11375 3.165 16.2275 3.25 17.375 C2.9541419 20.48151009 2.05010042 21.70388753 0 24 C-0.33 24.66 -0.66 25.32 -1 26 C-1.99 26 -2.98 26 -4 26 C-2.79618552 23.50638429 -1.54571278 21.31856917 0 19 C1.2424842 13.61590181 0.54697881 10.22105349 -1 5 C-0.625 2.0625 -0.625 2.0625 0 0 Z " fill="#101010" transform="translate(22,262)"/>
<path d="M0 0 C1.485 0.99 1.485 0.99 3 2 C2.34 2.66 1.68 3.32 1 4 C1.33 4.99 1.66 5.98 2 7 C1.835 8.0725 1.67 9.145 1.5 10.25 C0.98273956 14.1294533 1.3362082 17.16475848 2 21 C2 24 2 24 1 27 C-1.32400089 18.72074683 -2.77060028 8.31180083 0 0 Z " fill="#101010" transform="translate(5,56)"/>
<path d="M0 0 C21.00917431 0.75229358 21.00917431 0.75229358 30 3 C28 5 28 5 26.15576172 5.05932617 C25.42115723 4.97142822 24.68655273 4.88353027 23.9296875 4.79296875 C23.115 4.70080078 22.3003125 4.60863281 21.4609375 4.51367188 C20.60757812 4.40603516 19.75421875 4.29839844 18.875 4.1875 C18.04484375 4.09146484 17.2146875 3.99542969 16.359375 3.89648438 C14.70708516 3.70354457 13.05567079 3.50294274 11.40527344 3.29443359 C9.81712709 3.10002591 8.22641195 2.92545076 6.63378906 2.77197266 C4.7479193 2.58136601 2.8717114 2.29921917 1 2 C0.67 1.34 0.34 0.68 0 0 Z " fill="#0E0E0E" transform="translate(260,50)"/>
<path d="M0 0 C0.33 0 0.66 0 1 0 C2.12520495 11.01093413 2.09920291 21.94438708 2 33 C1.67 33 1.34 33 1 33 C0.93941406 31.86820313 0.87882812 30.73640625 0.81640625 29.5703125 C0.73200083 28.08852855 0.64735283 26.6067584 0.5625 25.125 C0.50352539 24.00544922 0.50352539 24.00544922 0.44335938 22.86328125 C0.28426376 18.80013136 0.28426376 18.80013136 -1 15 C-1.17472712 9.84554984 -0.84676589 5.08059532 0 0 Z " fill="#101010" transform="translate(363,163)"/>
<path d="M0 0 C2.875 0.5 2.875 0.5 6 2 C7.18275852 4.68310961 7.52711756 7.0681289 8 10 C7.34 10 6.68 10 6 10 C6.185625 10.886875 6.37125 11.77375 6.5625 12.6875 C6.98042484 15.85178811 6.80777742 17.94839642 6 21 C5.34 21 4.68 21 4 21 C4 15.06 4 9.12 4 3 C2.68 2.34 1.36 1.68 0 1 C0 0.67 0 0.34 0 0 Z " fill="#111111" transform="translate(18,96)"/>
<path d="M0 0 C1.27230469 0.00902344 2.54460937 0.01804687 3.85546875 0.02734375 C5.31919922 0.04474609 5.31919922 0.04474609 6.8125 0.0625 C6.8125 0.3925 6.8125 0.7225 6.8125 1.0625 C9.7825 1.5575 9.7825 1.5575 12.8125 2.0625 C12.8125 2.3925 12.8125 2.7225 12.8125 3.0625 C5.2225 3.0625 -2.3675 3.0625 -10.1875 3.0625 C-10.1875 2.4025 -10.1875 1.7425 -10.1875 1.0625 C-6.62704823 -0.12431726 -3.74941663 -0.03439832 0 0 Z " fill="#101010" transform="translate(147.1875,331.9375)"/>
<path d="M0 0 C0.66 0.66 1.32 1.32 2 2 C1.21718695 3.33855056 0.42348123 4.67073644 -0.375 6 C-0.81585938 6.7425 -1.25671875 7.485 -1.7109375 8.25 C-2.13632813 8.8275 -2.56171875 9.405 -3 10 C-3.66 10 -4.32 10 -5 10 C-5 10.66 -5 11.32 -5 12 C-5.66 12 -6.32 12 -7 12 C-7 12.66 -7 13.32 -7 14 C-7.99 13.67 -8.98 13.34 -10 13 C-9.21625 12.113125 -8.4325 11.22625 -7.625 10.3125 C-5.40282382 7.67210527 -4.25224028 5.22004643 -3 2 C-2.01 1.34 -1.02 0.68 0 0 Z " fill="#0D0D0D" transform="translate(68,329)"/>
<path d="M0 0 C0.33 0 0.66 0 1 0 C1.32134892 6.74832735 0.43087228 11.72759381 -2 18 C-2.33 18.99 -2.66 19.98 -3 21 C-3.99 21.33 -4.98 21.66 -6 22 C-5.70222656 21.29875 -5.40445312 20.5975 -5.09765625 19.875 C-3.97665014 16.93884166 -3.18111893 14.05234158 -2.4375 11 C-2.18871094 9.989375 -1.93992187 8.97875 -1.68359375 7.9375 C-1.06966794 5.29937309 -0.51328599 2.65931029 0 0 Z " fill="#101010" transform="translate(376,314)"/>
<path d="M0 0 C2.40052454 -0.06668124 4.54448232 -0.12147138 6.875 0.5 C9.92221497 1.21699176 12.88352991 1.05993212 16 1 C16.33 1.99 16.66 2.98 17 4 C14.53991222 3.91320858 12.08356483 3.80639045 9.625 3.6875 C8.92632812 3.66494141 8.22765625 3.64238281 7.5078125 3.61914062 C5.4765625 3.51171875 5.4765625 3.51171875 2 3 C1.34 2.01 0.68 1.02 0 0 Z " fill="#111111" transform="translate(112,330)"/>
<path d="M0 0 C1.485 0.99 1.485 0.99 3 2 C3 2.99 3 3.98 3 5 C3.99 5.33 4.98 5.66 6 6 C7.75 8.875 7.75 8.875 9 12 C8.67 12.99 8.34 13.98 8 15 C0.14806378 5.77448747 0.14806378 5.77448747 0 0 Z " fill="#101010" transform="translate(366,289)"/>
<path d="M0 0 C0.33 0.66 0.66 1.32 1 2 C1.66 2 2.32 2 3 2 C3.515625 2.804375 4.03125 3.60875 4.5625 4.4375 C7.702379 7.73839843 9.77601238 7.69469751 14.171875 7.95703125 C14.77515625 7.97121094 15.3784375 7.98539063 16 8 C12.79619983 10.13586678 11.98060033 10.23132175 8.3125 10.125 C7.50425781 10.10695313 6.69601563 10.08890625 5.86328125 10.0703125 C4.94095703 10.03550781 4.94095703 10.03550781 4 10 C2.5393715 7.35261084 2 6.10551666 2 3 C1.01 2.67 0.02 2.34 -1 2 C-0.67 1.34 -0.34 0.68 0 0 Z " fill="#0F0F0F" transform="translate(65,46)"/>
<path d="M0 0 C0.66 0 1.32 0 2 0 C1.85764543 1.72945653 1.71095618 3.45855654 1.5625 5.1875 C1.48128906 6.15042969 1.40007813 7.11335937 1.31640625 8.10546875 C1.02326485 10.7871697 0.52849819 13.35750904 0 16 C0 16.99 0 17.98 0 19 C-0.66 19 -1.32 19 -2 19 C-2.09585232 12.96130397 -2.07822521 6.96351721 -1 1 C-0.67 0.67 -0.34 0.34 0 0 Z " fill="#101010" transform="translate(21,123)"/>
<path d="M0 0 C1.485 0.99 1.485 0.99 3 2 C2.67 3.65 2.34 5.3 2 7 C2.66 7.33 3.32 7.66 4 8 C3.979375 9.0725 3.95875 10.145 3.9375 11.25 C3.9857984 14.14790424 4.13155885 16.28612141 5 19 C4.01 18.67 3.02 18.34 2 18 C1.34 12.06 0.68 6.12 0 0 Z " fill="#111111" transform="translate(18,241)"/>
<path d="M0 0 C5.01113235 1.4317521 6.94469549 3.98445693 10 8 C9.34 8.66 8.68 9.32 8 10 C5 7 2 4 -1 1 C-0.67 0.67 -0.34 0.34 0 0 Z " fill="#101010" transform="translate(55,38)"/>
<path d="M0 0 C0.7940625 -0.01417969 1.588125 -0.02835937 2.40625 -0.04296875 C4.5 0.1875 4.5 0.1875 6.5 2.1875 C2.12426048 2.78082061 -2.07528444 3.32577236 -6.5 3.1875 C-6.5 2.5275 -6.5 1.8675 -6.5 1.1875 C-4.14653604 0.01076802 -2.6193967 0.02126134 0 0 Z " fill="#111111" transform="translate(206.5,332.8125)"/>
<path d="M0 0 C-3.63719605 2.42479736 -5.85703482 2.38662577 -10.1875 2.625 C-11.45980469 2.69976562 -12.73210937 2.77453125 -14.04296875 2.8515625 C-15.01878906 2.90054687 -15.99460938 2.94953125 -17 3 C-16.67 2.01 -16.34 1.02 -16 0 C-15.06027344 0.01740234 -15.06027344 0.01740234 -14.1015625 0.03515625 C-12.87566406 0.04869141 -12.87566406 0.04869141 -11.625 0.0625 C-10.40683594 0.07990234 -10.40683594 0.07990234 -9.1640625 0.09765625 C-1.12028302 -0.26533019 -1.12028302 -0.26533019 0 0 Z " fill="#101010" transform="translate(257,332)"/>
<path d="M0 0 C0.66 0.33 1.32 0.66 2 1 C1.01 2.485 1.01 2.485 0 4 C0 4.66 0 5.32 0 6 C-0.66 6 -1.32 6 -2 6 C-2 6.66 -2 7.32 -2 8 C-3.98 8.99 -3.98 8.99 -6 10 C-5.58578031 5.16743695 -3.53586014 3.17320782 0 0 Z " fill="#0F0F0F" transform="translate(14,289)"/>
<path d="M0 0 C4.85077588 1.11940982 7.777893 2.1334716 11 6 C10.01 7.485 10.01 7.485 9 9 C9 8.34 9 7.68 9 7 C6.9254644 5.7763932 6.9254644 5.7763932 4 6 C4 5.01 4 4.02 4 3 C2.68 2.34 1.36 1.68 0 1 C0 0.67 0 0.34 0 0 Z " fill="#101010" transform="translate(355,35)"/>
<path d="M0 0 C0.33 0.66 0.66 1.32 1 2 C-1.31 5.3 -3.62 8.6 -6 12 C-6.99 11.67 -7.98 11.34 -9 11 C-8.67 10.01 -8.34 9.02 -8 8 C-7.401875 7.731875 -6.80375 7.46375 -6.1875 7.1875 C-3.06423954 5.49201575 -1.81732653 2.98560787 0 0 Z " fill="#0F0F0F" transform="translate(373,82)"/>
<path d="M0 0 C2.375 0.25 2.375 0.25 5 1 C6.0625 2.875 6.0625 2.875 7 5 C9.03317007 6.73425773 9.03317007 6.73425773 11 8 C8.087425 7.91433603 6.43201976 7.42089045 4.33203125 5.375 C2.83908228 3.61608625 1.39563738 1.83686981 0 0 Z " fill="#101010" transform="translate(315,337)"/>
<path d="M0 0 C0.70125 0.185625 1.4025 0.37125 2.125 0.5625 C5.33752761 1.0513629 7.82155525 0.56505684 11 0 C11.66 0.33 12.32 0.66 13 1 C11 3 11 3 8.1796875 3.1953125 C7.08914062 3.17210937 5.99859375 3.14890625 4.875 3.125 C3.77929688 3.10695313 2.68359375 3.08890625 1.5546875 3.0703125 C0.71164063 3.04710937 -0.13140625 3.02390625 -1 3 C-0.67 2.01 -0.34 1.02 0 0 Z " fill="#101010" transform="translate(227,332)"/>
<path d="M0 0 C0.33 0 0.66 0 1 0 C1.33 4.29 1.66 8.58 2 13 C1.01 13 0.02 13 -1 13 C-0.979375 12.113125 -0.95875 11.22625 -0.9375 10.3125 C-0.99286219 7.37830369 -1.3305734 4.84506304 -2 2 C-1.34 2 -0.68 2 0 2 C0 1.34 0 0.68 0 0 Z " fill="#101010" transform="translate(357,100)"/>
<path d="M0 0 C3.96 1.98 3.96 1.98 8 4 C8 5.32 8 6.64 8 8 C4.63820226 6.55922954 2.40843732 4.75249979 0 2 C0 1.34 0 0.68 0 0 Z " fill="#101010" transform="translate(10,88)"/>
<path d="M0 0 C0.99 0.33 1.98 0.66 3 1 C2.67 2.32 2.34 3.64 2 5 C2.66 5.33 3.32 5.66 4 6 C4.33 6.66 4.66 7.32 5 8 C4.34 8.66 3.68 9.32 3 10 C0.96564469 6.27034861 0 4.33094958 0 0 Z " fill="#111111" transform="translate(5,324)"/>
<path d="M0 0 C1.37432457 3.81756824 0.67975039 7.07255329 0 11 C-1.77084117 8.29165469 -2.01052504 7.10735541 -1.6875 3.8125 C-1 1 -1 1 0 0 Z " fill="#0E0E0E" transform="translate(364,202)"/>
<path d="M0 0 C0.33 0 0.66 0 1 0 C1 4.29 1 8.58 1 13 C0.01 13 -0.98 13 -2 13 C-1.855625 12.154375 -1.71125 11.30875 -1.5625 10.4375 C-0.9941203 6.96406851 -0.48797607 3.48554338 0 0 Z " fill="#101010" transform="translate(363,217)"/>
<path d="M0 0 C3.3 0 6.6 0 10 0 C10 0.99 10 1.98 10 3 C3.375 3.125 3.375 3.125 0 2 C0 1.34 0 0.68 0 0 Z " fill="#101010" transform="translate(171,333)"/>
<path d="M0 0 C3.91606575 0.53400897 6.39338934 1.19669467 10 3 C7.03 3 4.06 3 1 3 C0.67 2.01 0.34 1.02 0 0 Z " fill="#111111" transform="translate(101,329)"/>
<path d="M0 0 C0.66 0 1.32 0 2 0 C1.34 3.63 0.68 7.26 0 11 C-0.33 11 -0.66 11 -1 11 C-1.0270043 9.54176788 -1.04639787 8.08339325 -1.0625 6.625 C-1.07410156 5.81289062 -1.08570312 5.00078125 -1.09765625 4.1640625 C-1 2 -1 2 0 0 Z " fill="#101010" transform="translate(18,152)"/>
<path d="M0 0 C0 0.33 0 0.66 0 1 C-4.29 0.67 -8.58 0.34 -13 0 C-13 -0.33 -13 -0.66 -13 -1 C-7.96488101 -2.0070238 -4.76052962 -1.97387813 0 0 Z " fill="#111111" transform="translate(305,330)"/>
<path d="M0 0 C0.33 0 0.66 0 1 0 C1.33 3.96 1.66 7.92 2 12 C0.34310164 8.68620328 -0.54152804 6.57608127 -1 3 C-0.67 2.01 -0.34 1.02 0 0 Z " fill="#121212" transform="translate(362,149)"/>
<path d="M0 0 C2.83374881 3.20336822 3.5205537 5.78087253 4 10 C3.34 10 2.68 10 2 10 C1.67 8.02 1.34 6.04 1 4 C0.34 4 -0.32 4 -1 4 C-0.67 2.68 -0.34 1.36 0 0 Z " fill="#101010" transform="translate(359,137)"/>
</svg>
