<?xml version="1.0" standalone="no"?>
<!DOCTYPE svg PUBLIC "-//W3C//DTD SVG 20010904//EN"
 "http://www.w3.org/TR/2001/REC-SVG-20010904/DTD/svg10.dtd">
<svg version="1.0" xmlns="http://www.w3.org/2000/svg"
 width="360.000000pt" height="360.000000pt" viewBox="0 0 360.000000 360.000000"
 preserveAspectRatio="xMidYMid meet">

<g transform="translate(0.000000,360.000000) scale(0.100000,-0.100000)"
fill="#000000" stroke="none">
<path d="M1656 3149 c-78 -13 -169 -63 -221 -122 -109 -123 -181 -348 -204
-638 -5 -64 -14 -126 -20 -137 -6 -12 -44 -44 -85 -71 -101 -68 -159 -137
-212 -250 -25 -53 -49 -103 -53 -111 -8 -16 -29 -22 -146 -40 -130 -20 -259
-80 -286 -134 -9 -16 -4 -14 22 10 70 63 157 98 297 119 54 8 102 21 112 30
10 9 26 37 35 63 45 122 130 231 237 303 99 68 99 67 118 279 22 240 98 461
194 567 90 100 242 148 392 125 172 -27 280 -101 401 -275 43 -62 71 -78 166
-94 101 -18 184 -60 239 -122 51 -58 119 -200 153 -316 28 -98 69 -326 80
-445 3 -41 9 -83 11 -93 3 -10 40 -35 82 -57 42 -21 93 -49 112 -61 l35 -21
-24 21 c-13 12 -61 42 -107 67 -95 51 -83 27 -109 238 -28 234 -71 399 -140
543 -78 159 -165 227 -337 259 -46 9 -91 20 -101 25 -9 6 -37 40 -62 78 -137
207 -343 300 -579 260z"/>
<path d="M1522 2740 c-2 -295 -14 -415 -43 -446 -10 -11 -19 -31 -19 -43 0
-13 -11 -36 -25 -53 -29 -34 -31 -50 -10 -72 49 -49 245 -46 291 5 15 17 15
20 -4 52 -11 19 -19 47 -19 62 0 18 -9 36 -23 47 -21 17 -22 24 -16 88 9 101
40 176 95 232 26 25 59 50 74 53 58 15 112 -19 149 -93 21 -44 23 -61 26 -252
l3 -205 -40 -27 c-36 -24 -40 -32 -46 -82 -4 -30 -6 -107 -4 -171 l4 -115
-132 0 c-82 0 -133 -4 -133 -10 0 -6 52 -10 135 -10 l135 0 0 -25 0 -25 -135
0 c-83 0 -135 -4 -135 -10 0 -6 52 -10 135 -10 l135 0 0 -35 0 -35 -135 0
c-83 0 -135 -4 -135 -10 0 -6 52 -10 135 -10 74 0 135 -2 135 -4 0 -2 -7 -19
-14 -38 l-15 -35 -63 13 c-89 17 -178 24 -178 14 0 -5 20 -11 45 -14 25 -3 66
-9 92 -12 127 -16 223 -67 223 -119 l0 -25 -473 0 c-498 0 -497 0 -497 45 0
62 151 115 329 115 34 0 61 4 61 10 0 22 -210 4 -300 -25 -25 -8 -58 -26 -75
-39 -24 -20 -30 -31 -30 -66 l0 -42 -135 5 c-148 5 -222 23 -267 62 -23 20
-26 27 -17 42 45 74 277 113 682 113 88 0 142 4 142 10 0 13 -345 13 -503 0
-175 -15 -284 -47 -331 -99 -49 -55 41 -122 189 -141 53 -7 392 -10 1000 -8
845 3 925 5 980 21 126 37 197 98 169 145 -18 30 -115 71 -197 82 -43 5 -175
10 -293 10 -228 0 -231 1 -199 47 22 31 118 43 145 18 17 -15 24 -16 46 -7 32
15 227 16 330 1 105 -14 177 -43 226 -90 40 -37 40 -40 36 -94 -4 -48 -10 -61
-44 -96 -48 -49 -114 -81 -219 -105 -75 -18 -140 -19 -1050 -19 l-970 0 -80
23 c-129 36 -193 91 -180 151 11 50 88 127 168 166 118 58 177 66 500 72 158
3 287 9 287 14 0 12 -358 11 -500 -1 -197 -17 -303 -55 -391 -136 -95 -90
-105 -149 -36 -218 34 -35 56 -76 116 -220 80 -191 121 -252 205 -301 52 -30
152 -61 238 -75 376 -58 1307 -65 1478 -11 166 52 235 137 345 419 26 68 71
160 99 205 45 74 50 88 51 141 0 57 -1 59 -48 101 -31 29 -69 51 -111 65 -65
21 -217 39 -343 40 -40 0 -73 4 -73 9 0 5 21 6 46 3 36 -4 51 0 76 18 28 21
38 22 156 18 100 -3 139 -9 182 -26 79 -32 149 -88 179 -145 23 -46 24 -53 14
-113 -8 -47 -24 -85 -56 -137 -25 -40 -71 -137 -102 -217 -73 -188 -114 -261
-189 -335 -65 -64 -140 -107 -227 -131 -133 -37 -981 -36 -1334 1 -309 33
-414 71 -522 188 -48 52 -89 130 -158 300 -35 85 -59 129 -87 158 -68 70 -75
123 -27 217 36 73 105 138 195 182 105 51 179 60 520 60 216 0 304 3 304 11 0
8 -93 10 -332 6 -272 -4 -344 -8 -392 -22 -172 -49 -301 -161 -336 -293 -17
-64 -4 -109 47 -163 34 -37 58 -81 107 -197 77 -183 105 -233 171 -297 114
-111 243 -147 648 -180 216 -17 944 -21 1093 -5 113 12 211 47 285 103 112 83
170 176 263 421 25 66 61 144 81 173 118 177 80 327 -102 411 -84 39 -150 52
-258 52 l-82 0 -5 49 c-3 29 -14 60 -27 76 -12 16 -19 36 -16 45 3 10 -1 23
-10 30 -12 10 -15 35 -15 112 0 55 4 107 10 117 15 29 -14 61 -56 61 -42 0
-67 -38 -46 -71 14 -23 16 -215 2 -224 -5 -3 -7 -19 -3 -35 6 -33 -2 -37 -31
-15 -17 13 -22 13 -42 0 -16 -10 -49 -15 -104 -15 l-80 0 0 108 0 107 -31 26
-31 25 -6 390 c-6 346 -14 395 -21 135 l-1 -44 -30 60 c-49 97 -128 145 -238
145 -119 -1 -226 -80 -292 -215 l-29 -62 -3 235 -3 235 -3 -255z m439 13 c62
-32 110 -94 134 -176 23 -75 34 -445 14 -458 -36 -22 -39 -12 -39 119 0 70 4
133 9 141 5 8 5 21 1 30 -5 9 -14 49 -20 90 -24 166 -133 267 -250 232 -59
-18 -82 -42 -134 -145 -45 -89 -49 -103 -55 -193 l-6 -98 -33 -3 c-27 -3 -34
1 -42 24 -7 16 -8 51 -4 83 34 281 236 449 425 354z m-296 -504 c0 -35 -104
-52 -137 -22 -29 26 -21 31 41 26 39 -4 61 -2 66 6 9 15 30 9 30 -10z m869
-65 c18 -7 21 -30 5 -40 -12 -7 -29 12 -29 34 0 14 2 14 24 6z m-839 -24 c0
-24 -53 -43 -126 -44 -37 0 -70 2 -74 6 -4 3 -1 16 5 28 10 18 17 20 53 15 23
-3 56 -1 72 4 40 13 70 9 70 -9z m472 -93 c36 -36 -12 -67 -105 -67 -93 0
-140 38 -87 70 34 21 170 19 192 -3z m373 -68 c0 -81 -2 -90 -17 -87 -32 6
-30 178 2 178 12 0 15 -18 15 -91z m-339 -170 c7 -5 46 -9 86 -9 l72 0 -3 -37
c-1 -29 -7 -39 -21 -41 -97 -13 -130 -26 -177 -70 -36 -33 -50 -55 -54 -83 -5
-27 -12 -39 -28 -43 -32 -9 -74 -7 -80 3 -9 13 -25 188 -30 317 l-4 110 81 -4
c45 -2 93 1 107 6 l25 9 6 -74 c3 -49 10 -78 20 -84z m249 -31 c0 -5 -4 -6
-10 -3 -6 4 -10 -14 -10 -46 0 -56 15 -58 23 -4 2 17 3 8 2 -18 -3 -59 -20
-81 -41 -53 -15 21 -18 76 -7 140 l6 39 19 -22 c10 -13 18 -27 18 -33z m135
22 c17 -34 20 -76 4 -85 -6 -4 -12 -5 -13 -4 -5 6 -15 119 -11 119 3 0 11 -13
20 -30z m210 -303 c63 -18 114 -44 121 -62 10 -24 -15 -53 -69 -79 -95 -47
-179 -56 -512 -56 -292 0 -303 1 -298 19 5 19 40 31 92 31 48 0 101 21 117 45
15 23 15 29 0 72 -9 25 -16 49 -16 51 0 3 116 2 258 -1 177 -4 273 -10 307
-20z m-691 -42 c-24 -18 -42 -18 -74 0 -24 14 -22 14 34 15 55 0 58 -1 40 -15z
m827 -232 c-5 -10 -26 -63 -46 -118 -99 -263 -155 -336 -307 -400 -55 -22 -46
-10 13 21 63 31 142 104 174 159 13 22 51 105 85 184 55 132 75 171 87 171 2
0 0 -8 -6 -17z m-241 -233 c0 -5 -5 -10 -11 -10 -5 0 -7 5 -4 10 3 6 8 10 11
10 2 0 4 -4 4 -10z m-160 -107 c0 -15 -35 -43 -53 -43 -20 0 -20 1 3 25 22 23
50 34 50 18z m76 -51 c-23 -23 -33 -6 -10 19 12 13 20 16 22 9 3 -7 -3 -19
-12 -28z m-515 -21 c-15 -27 -80 -76 -89 -67 -6 7 89 98 96 91 2 -2 -1 -12 -7
-24z m55 -19 c-23 -23 -33 -6 -10 19 12 13 20 16 22 9 3 -7 -3 -19 -12 -28z
m169 18 c-3 -5 -14 -10 -23 -10 -15 0 -15 2 -2 10 20 13 33 13 25 0z"/>
<path d="M2697 2380 c-4 -14 -6 -77 -5 -140 l1 -115 8 130 c9 133 8 169 -4
125z"/>
<path d="M1347 2013 c3 -54 7 -100 9 -102 2 -2 4 39 4 92 0 53 -4 98 -9 102
-6 3 -7 -34 -4 -92z"/>
<path d="M1528 1703 c6 -2 18 -2 25 0 6 3 1 5 -13 5 -14 0 -19 -2 -12 -5z"/>
<path d="M1523 1643 c9 -2 25 -2 35 0 9 3 1 5 -18 5 -19 0 -27 -2 -17 -5z"/>
</g>
</svg>
