<?xml version="1.0" standalone="no"?>
<!DOCTYPE svg PUBLIC "-//W3C//DTD SVG 20010904//EN"
 "http://www.w3.org/TR/2001/REC-SVG-20010904/DTD/svg10.dtd">
<svg version="1.0" xmlns="http://www.w3.org/2000/svg"
 width="378.000000pt" height="378.000000pt" viewBox="0 0 378.000000 378.000000"
 preserveAspectRatio="xMidYMid meet">

<g transform="translate(0.000000,378.000000) scale(0.100000,-0.100000)"
fill="#000000" stroke="none">
<path d="M1725 3079 c-253 -32 -528 -153 -763 -336 -220 -171 -436 -418 -591
-672 -63 -104 -65 -130 -14 -215 228 -377 541 -690 865 -865 84 -46 209 -100
247 -107 13 -3 32 -9 43 -15 10 -5 18 -7 18 -5 0 3 12 1 26 -5 15 -5 43 -12
63 -15 20 -3 52 -9 71 -14 41 -9 33 -9 220 -10 80 -1 165 3 190 9 25 5 61 12
81 15 69 10 254 77 349 125 301 153 585 415 805 741 123 184 143 255 85 304
-43 36 -95 44 -127 19 -14 -10 -51 -60 -82 -111 -123 -203 -323 -437 -491
-574 -179 -147 -408 -261 -609 -303 -350 -73 -712 30 -1046 295 -137 110 -329
323 -445 495 -78 117 -77 103 -18 192 29 43 56 80 60 81 4 2 8 8 8 13 0 5 6
17 14 26 8 10 41 52 74 93 162 203 357 369 562 478 129 69 253 115 347 127 12
2 36 6 53 10 38 8 325 9 338 1 5 -3 29 -8 53 -11 206 -26 486 -175 692 -368
41 -39 68 -51 107 -48 47 4 67 16 90 54 41 67 21 110 -97 207 -373 308 -772
439 -1178 389z"/>
<path d="M1851 2516 c-53 -29 -69 -121 -29 -171 25 -32 82 -58 108 -50 10 3
47 -4 81 -16 154 -52 249 -191 236 -345 -13 -169 -159 -307 -327 -308 -100 -1
-162 25 -236 98 -67 67 -104 143 -104 217 0 61 -22 103 -65 123 -85 41 -175
-20 -175 -116 1 -130 69 -285 168 -380 124 -119 229 -163 392 -163 168 0 274
46 397 170 179 181 224 444 111 659 -42 79 -155 192 -234 234 -106 55 -267 79
-323 48z"/>
</g>
</svg>
